<svg width="50" height="50" viewBox="0 0 50 50" fill="none" xmlns="http://www.w3.org/2000/svg">
<g clip-path="url(#clip0_203_205)">
<path d="M15.9925 24.1269C13.1919 24.1269 10.5116 24.1269 7.83129 24.1269C6.95504 24.1269 6.07878 24.1269 5.20253 24.1269C4.70427 24.1269 4.01701 24.2541 3.99983 23.5168C3.98265 22.7625 4.66132 22.8812 5.16817 22.8727C8.45841 22.8727 11.7401 22.8727 15.0303 22.8727C15.3224 22.8727 15.6145 22.8727 15.9925 22.8727C15.9925 22.4913 15.9925 22.2032 15.9925 21.9151C15.9925 18.9998 15.9925 16.0761 15.9925 13.1608C15.9925 11.9405 16.3361 11.7286 17.3928 12.3049C20.8634 14.1863 24.334 16.0676 27.8047 17.949C27.9937 18.0507 28.2428 18.1354 28.3459 18.2964C28.4662 18.4913 28.5779 18.8303 28.492 18.9913C28.3975 19.1608 28.0452 19.2964 27.8219 19.271C27.5384 19.2371 27.2721 19.0507 27.0144 18.9066C24.0677 17.3134 21.1297 15.7032 18.1831 14.11C17.9254 13.9659 17.6591 13.8473 17.3154 13.6778V33.3303C17.8996 33.0168 18.4236 32.6693 18.9992 32.4659C19.2655 32.3727 19.6435 32.5846 19.9614 32.6524C19.8325 32.9405 19.7896 33.3388 19.5662 33.4829C18.9391 33.9066 18.2432 34.2286 17.5646 34.593C16.276 35.288 15.9839 35.1185 15.9839 33.7032C15.9839 30.8388 15.9839 27.9744 15.9839 25.11C15.9839 24.8134 15.9839 24.5252 15.9839 24.1185L15.9925 24.1269Z" fill="white"/>
<path d="M35.4677 23.5C33.7925 22.5847 32.2634 21.7542 30.7342 20.9237C30.5452 20.822 30.2875 20.7458 30.1844 20.5847C30.0556 20.3644 29.9181 19.9915 30.0212 19.822C30.1157 19.6525 30.5109 19.6102 30.7772 19.6017C30.9404 19.6017 31.1208 19.7458 31.284 19.839C32.9077 20.7203 34.5227 21.6356 36.1721 22.4746C36.636 22.7119 37.1944 22.8474 37.7185 22.8559C39.9864 22.8983 42.263 22.8729 44.5309 22.8729C44.6941 22.8729 44.8574 22.8729 45.0206 22.8729C45.4759 22.8729 45.9827 22.8983 45.9913 23.4746C45.9999 24.1102 45.4673 24.1271 44.9776 24.1271C44.7285 24.1271 44.488 24.1271 44.2388 24.1271C42.0224 24.1271 39.806 24.1102 37.5896 24.1441C37.1257 24.1441 36.6103 24.2797 36.2065 24.5C31.7651 26.8813 27.3409 29.2881 22.9167 31.6949C22.7706 31.7712 22.6246 31.9152 22.4871 31.9152C22.1263 31.9152 21.5937 31.983 21.4477 31.7881C21.147 31.3898 21.4906 31.0763 21.8944 30.8559C25.2276 29.0593 28.5522 27.2542 31.8768 25.4491C33.0194 24.8305 34.1619 24.2034 35.4591 23.5H35.4677Z" fill="white"/>
</g>
<defs>
<clipPath id="clip0_203_205">
<rect width="42" height="23" fill="white" transform="translate(4 12)"/>
</clipPath>
</defs>
</svg>
