<svg width="50" height="50" viewBox="0 0 50 50" fill="none" xmlns="http://www.w3.org/2000/svg">
<g clip-path="url(#clip0_203_182)">
<path d="M12.7579 26.9234C9.94769 26.0658 8.26766 23.2787 8.86331 20.3997C9.0924 19.3124 9.38259 18.2404 9.64223 17.1531C9.55059 17.0919 9.4895 17.0459 9.41313 17.0153C7.97747 16.5253 7.46837 15.5248 7.88583 14.0138C9.18404 9.38897 13.1856 6.50995 17.9355 7.06125C20.089 7.30627 22.1814 8.02603 24.289 8.53139C25.8469 8.91424 27.3895 9.3124 28.9779 9.72587C29.1153 9.15926 29.268 8.69984 29.3597 8.20979C29.4971 7.5513 29.8942 7.36753 30.5052 7.52067C31.9408 7.8882 33.3612 8.27105 34.7969 8.62327C35.4078 8.77641 35.5911 9.14394 35.4383 9.72587C35.3162 10.2159 35.194 10.7213 35.0565 11.2726C35.4536 11.3798 35.7743 11.487 36.0951 11.5635C39.4399 12.4211 42.7847 13.2787 46.1294 14.1363C46.5571 14.2435 47.0916 14.3354 46.9847 14.9326C46.7098 16.4793 46.2363 17.9188 44.648 18.6845C44.4189 18.7917 44.1745 19.1593 44.1592 19.4196C43.869 22.559 43.2123 25.6217 41.8072 28.4395C41.1199 29.8178 40.173 31.0888 39.1955 32.2986C38.5388 33.1103 37.5766 33.3553 36.5074 33.0337C35.4078 32.6968 34.2929 32.4518 33.1932 32.1608C29.9095 31.3185 26.6258 30.4763 23.2657 29.6034C22.8839 31.4257 21.8148 32.4824 20.1501 32.5896C20.0279 33.6616 19.921 34.657 19.8141 35.6677C21.1733 35.8361 21.3719 36.0658 21.3719 37.6891C21.3719 38.0873 21.4788 38.5161 21.3414 38.853C21.1581 39.2971 20.8221 39.7106 20.4708 40.0168C20.2722 40.1853 19.8751 40.1087 19.5697 40.1393C19.5391 40.2312 19.5086 40.3078 19.5086 40.3844C19.3711 42.7887 18.2562 43.8606 15.8583 43.8606C14.5907 43.8606 13.323 43.8606 11.9943 43.8606C11.9943 44.6876 11.9943 45.4073 11.9943 46.1271C11.9943 46.709 11.7652 47 11.1695 46.9847C10.0546 46.9847 8.9244 46.9847 7.80947 46.9847C7.25964 46.9847 7 46.7397 7 46.173C7 40.6753 7 35.1623 7 29.6646C7 29.0674 7.27491 28.807 7.85529 28.8224C8.40512 28.8377 8.95494 28.8224 9.4895 28.8224C10.6961 28.8224 10.7419 28.8683 10.7419 30.0475C10.7419 32.5283 10.7419 35.0092 10.7419 37.49C10.7419 38.8223 10.803 38.8836 12.1623 38.853C12.2845 38.853 12.4066 38.8377 12.6205 38.8224C12.6205 38.4089 12.6205 38.026 12.6205 37.6432C12.6205 36.0965 12.8496 35.8361 14.4074 35.6677C13.5216 34.0903 13.7201 32.6661 15.0336 31.3798C13.491 30.3691 12.9565 29.0061 13.5521 27.1684C13.2467 27.0766 13.0023 27 12.7426 26.9387L12.7579 26.9234ZM26.1982 17.8423C25.6636 19.7106 23.7392 20.6294 21.7537 20.17C20.4097 19.8637 19.0962 19.4655 17.7675 19.1286C17.3246 19.0214 16.9122 18.8377 17.0496 18.317C17.1871 17.7963 17.6147 17.7963 18.0577 17.9188C19.2795 18.2557 20.5166 18.562 21.7537 18.8836C23.4948 19.3277 24.5945 18.7305 25.1901 17.0153C25.8927 14.9939 27.756 13.9678 29.8331 14.5038C33.911 15.5452 37.9737 16.6018 42.0515 17.6432C43.9454 18.1332 45.152 17.3675 45.5949 15.3155C44.3578 14.9939 43.1054 14.6723 41.853 14.3507C34.2929 12.4058 26.7327 10.4456 19.1573 8.50076C14.5449 7.32159 10.2073 9.92495 9.03131 14.5498C8.95494 14.8407 8.89385 15.147 8.81749 15.5299C9.68805 15.7596 10.5128 15.9586 11.3223 16.1884C11.7805 16.3109 12.3303 16.4027 12.1623 17.0612C11.9943 17.7197 11.4597 17.5207 10.8946 17.3828C10.5892 18.9602 9.77969 20.4456 10.0393 22.0842C10.3295 24.0597 11.5514 25.3001 13.4758 25.8055C17.5995 26.8775 21.7232 27.9188 25.8469 28.9755C26.7022 29.1899 27.5422 29.4196 28.4891 29.6493C27.4811 24.8254 28.5808 20.3691 30.383 15.974C28.2753 15.0704 26.748 16.0199 26.2287 17.8423H26.1982ZM31.6659 16.2649C30.5357 18.5773 29.7873 20.9663 29.543 23.4472C29.375 25.0858 29.4513 26.7703 29.543 28.4242C29.604 29.5421 30.1844 30.2465 31.4215 30.4456C32.6434 30.6294 33.8347 31.0429 35.1329 31.3798C34.079 26.5406 35.2703 22.0995 37.042 17.6432C35.2092 17.1684 33.4681 16.7243 31.6812 16.2649H31.6659ZM8.6953 30.0781C8.57312 30.0781 8.45094 30.0934 8.28293 30.1087V42.6202C9.96296 42.6202 11.6277 42.6202 13.2772 42.6202C14.1936 42.6202 15.0947 42.6202 16.0111 42.6202C17.5995 42.6202 18.302 41.8545 18.2104 40.1087C17.9355 40.1087 17.6606 40.1087 17.3856 40.1087C15.4307 40.1087 13.491 40.1087 11.5361 40.1087C10.2532 40.1087 9.50477 39.343 9.4895 38.072C9.4895 35.438 9.4895 32.8193 9.4895 30.0934C9.15349 30.0934 8.9244 30.0934 8.6953 30.0934V30.0781ZM41.9599 18.9295C41.3337 21.3798 40.7992 23.7841 40.0813 26.1424C39.7606 27.2144 39.1191 28.2098 38.5693 29.2052C38.4318 29.4655 38.0195 29.5727 37.7293 29.7412C37.5613 29.4655 37.2864 29.2205 37.2558 28.9295C37.0267 26.9081 37.3475 24.9173 37.8667 22.9724C38.2791 21.3951 38.8595 19.8637 39.394 18.271C39.0886 18.1792 38.722 18.0873 38.1417 17.9188C37.5613 19.8178 36.9045 21.6401 36.4616 23.5237C35.9423 25.7596 35.6522 28.0413 36.202 30.3384C36.3547 30.9663 36.4922 31.8086 37.21 31.8392C37.714 31.8698 38.4318 31.4257 38.7373 30.9816C39.6079 29.7259 40.4173 28.4089 41.0435 27.0306C42.1585 24.5498 42.7083 21.9005 42.861 19.098C42.4639 19.0214 42.0974 18.9449 41.9446 18.9142L41.9599 18.9295ZM16.3165 30.4303C17.2787 30.5835 18.2257 30.9204 19.1726 31.1654C20.8068 31.5789 21.601 31.0735 21.9981 29.3124C19.6155 28.6998 17.2329 28.0873 14.8198 27.4594C14.1019 28.9295 15.0183 30.2312 16.3013 30.4303H16.3165ZM20.0584 38.807V37.0153H13.9187V38.807H20.0737H20.0584ZM17.0038 35.7136C18.0271 35.7136 18.8824 34.8254 18.8671 33.7994C18.8519 32.804 18.0118 31.9617 17.0191 31.9464C15.9958 31.9464 15.1252 32.804 15.1252 33.8147C15.1252 34.8407 15.9958 35.7136 17.0191 35.6983L17.0038 35.7136ZM8.29821 43.8913V45.6983H10.6961V43.8913H8.29821ZM34.0943 9.77182C32.8877 9.46554 31.7423 9.15926 30.6273 8.86829C30.0622 9.95558 30.0928 10.0322 31.1466 10.3078C32.0172 10.5222 32.8877 10.7366 33.8194 10.9816C33.911 10.5681 34.0027 10.2006 34.0943 9.77182ZM40.4479 20.0475L40.1577 19.9709C39.2719 21.9617 38.8137 24.075 38.5235 26.219C38.6304 26.2496 38.7373 26.2956 38.8442 26.3262C39.3788 24.2282 39.9133 22.1455 40.4632 20.0475H40.4479Z" fill="white"/>
</g>
<defs>
<clipPath id="clip0_203_182">
<rect width="40" height="40" fill="white" transform="translate(7 7)"/>
</clipPath>
</defs>
</svg>
