<svg width="50" height="50" viewBox="0 0 50 50" fill="none" xmlns="http://www.w3.org/2000/svg">
<g clip-path="url(#clip0_203_189)">
<path d="M38 43H6V35.8329C6.13329 35.8104 6.26657 35.7766 6.41097 35.7766C7.76605 35.7766 9.13225 35.7429 10.4873 35.7991C10.8539 35.8104 11.3759 36.0242 11.5536 36.3167C12.1312 37.3068 12.9865 37.9481 13.9972 38.2632C15.63 38.7695 17.285 39.2645 18.9733 39.4896C22.261 39.9284 25.5377 39.7258 28.7254 38.7582C29.4696 38.5332 30.2249 38.2407 30.8691 37.8244C31.4356 37.4643 31.8688 36.868 32.3686 36.3955C32.613 36.1704 32.8796 35.8329 33.1461 35.8216C34.7456 35.7654 36.3561 35.7991 38 35.7991V43ZM12.8865 41.3573C13.4752 41.3573 14.075 41.3573 14.6637 41.3573C15.0524 41.3573 15.3967 41.1885 15.3301 40.7835C15.2968 40.5697 14.9302 40.2434 14.7081 40.2434C13.4863 40.1871 12.2534 40.1871 11.0316 40.2434C10.8205 40.2434 10.6206 40.6034 10.4096 40.806C10.6206 40.986 10.8205 41.301 11.0538 41.3348C11.6536 41.4135 12.2756 41.3573 12.8865 41.3573ZM8.41027 41.3573C8.84346 41.3685 9.24332 41.3235 9.24332 40.7947C9.24332 40.2659 8.84346 40.2209 8.4436 40.2096C8.02152 40.1984 7.63277 40.2997 7.62166 40.7835C7.62166 41.2673 8.01041 41.3798 8.39917 41.346L8.41027 41.3573Z" fill="white"/>
<path d="M21.8946 18.956C22.6388 18.956 23.3274 18.956 24.0272 18.956C24.4048 18.956 24.738 18.8548 24.7492 18.4272C24.7492 17.9547 24.4159 17.8534 24.005 17.8646C23.183 17.8759 22.3611 17.8646 21.4725 17.8646C21.4725 17.2458 21.4281 16.6833 21.4947 16.1432C21.5169 15.9519 21.7613 15.7607 21.9612 15.6369C22.0834 15.5581 22.2945 15.6031 22.4611 15.6031C25.8377 15.6031 29.2032 15.6031 32.5798 15.6031C33.5017 15.6031 33.6016 15.7044 33.6016 16.6383C33.6016 17.0208 33.6016 17.4033 33.6016 17.8759C33.1129 17.8759 32.6797 17.8759 32.2354 17.8759C30.5805 17.8759 28.9255 17.8759 27.2705 17.8759C26.8706 17.8759 26.4486 17.8759 26.4597 18.4272C26.4597 18.9898 26.904 18.9673 27.2927 18.9673C29.0588 18.9673 30.8137 18.9673 32.5798 18.9673C32.7686 18.9673 32.9574 18.9673 33.2462 18.9673C33.1351 19.2035 33.0685 19.3723 32.9796 19.5186C32.0244 21.1838 31.047 22.849 30.114 24.5254C29.8807 24.9417 29.603 25.1442 29.1143 25.133C28.0369 25.0992 26.9484 25.1442 25.871 25.1105C25.6155 25.1105 25.2601 24.9529 25.1379 24.7504C24.0383 22.9165 22.9942 21.0488 21.9279 19.1923C21.9057 19.1585 21.9279 19.1135 21.9168 18.9673L21.8946 18.956Z" fill="white"/>
<path d="M20.3394 10.0001C20.3394 10.5739 20.2839 11.0689 20.3616 11.5415C20.4061 11.789 20.6615 12.1153 20.8837 12.1716C21.2724 12.2841 21.439 11.9353 21.4502 11.5752C21.4724 11.0689 21.4502 10.5514 21.4502 10.0226H22.5276C22.5276 10.5289 22.5276 11.0127 22.5276 11.5077C22.5276 11.879 22.6497 12.2053 23.094 12.2053C23.5383 12.2053 23.6494 11.8903 23.6383 11.4965C23.6383 11.0239 23.6383 10.5514 23.6383 10.0451H24.7601C24.7601 10.5401 24.7601 11.0464 24.7601 11.5527C24.7601 11.9128 24.8601 12.2053 25.2822 12.2053C25.6931 12.2053 25.8264 11.9465 25.8264 11.5752C25.8264 11.0802 25.8264 10.5964 25.8264 10.0451H26.9482C26.9482 10.5064 26.9482 10.9902 26.9482 11.474C26.9482 11.8565 27.0371 12.1828 27.4814 12.1941C27.9701 12.2166 28.0701 11.8565 28.0701 11.4627C28.0701 10.9902 28.0701 10.5289 28.0701 10.0338H29.1475C29.1475 10.5289 29.1475 11.0127 29.1475 11.5077C29.1475 11.879 29.2474 12.2166 29.7028 12.2053C30.1471 12.2053 30.2582 11.8903 30.2471 11.5077C30.2471 11.0352 30.2471 10.5626 30.2471 10.0451H31.38C31.38 10.5514 31.38 11.0464 31.38 11.5302C31.38 11.8903 31.48 12.1828 31.891 12.1941C32.3575 12.2166 32.4574 11.9015 32.4574 11.519C32.4574 11.0239 32.4574 10.5401 32.4574 10.0226H33.5682C33.5682 10.5064 33.5682 10.9902 33.5682 11.474C33.5682 11.8565 33.657 12.1828 34.1013 12.1941C34.59 12.2166 34.69 11.8678 34.69 11.4627C34.69 10.9902 34.69 10.5289 34.69 10.0338C34.8233 10.0113 34.901 9.98881 34.9899 9.98881C36.3228 9.95505 36.3561 9.98881 36.3561 11.3165C36.3561 12.0703 36.3561 12.8241 36.3561 13.578C36.3561 14.2755 36.1673 14.4781 35.5008 14.4781C30.1693 14.4781 24.849 14.4781 19.5175 14.4781C18.8177 14.4781 18.6622 14.3093 18.6511 13.6117C18.6511 12.7116 18.6511 11.8115 18.6511 10.9002C18.6511 10.0901 18.7622 9.98881 19.5841 9.98881C19.7952 9.98881 20.0062 9.98881 20.3061 9.98881L20.3394 10.0001Z" fill="white"/>
<path d="M36.456 30.6799C36.3116 30.8936 36.2338 31.0961 36.0894 31.2424C34.701 32.6601 33.3126 34.0665 31.9131 35.4729C31.6465 35.7429 31.3355 35.8892 31.0245 35.5854C30.7135 35.2816 30.8357 34.9666 31.1134 34.6853C32.524 33.2564 33.9235 31.8275 35.3453 30.4211C35.5008 30.2748 35.8007 30.196 36.0117 30.2298C36.1672 30.2523 36.2894 30.4998 36.456 30.6799Z" fill="white"/>
<path d="M24.2602 35.1804C24.138 35.3604 24.0714 35.5854 23.9381 35.6417C23.7715 35.7092 23.516 35.7092 23.3494 35.6304C23.1384 35.5179 22.9718 35.2929 22.7941 35.1128C21.5389 33.8415 20.2838 32.5701 19.0176 31.2987C18.7177 30.9949 18.4956 30.6686 18.8843 30.3086C19.2397 29.971 19.5396 30.2298 19.8062 30.4998C21.1724 31.8837 22.5275 33.2564 23.8937 34.6403C24.0381 34.7866 24.1269 34.9778 24.2713 35.1804H24.2602Z" fill="white"/>
<path d="M25.8821 29.4647V26.2919H29.1032C29.2809 26.9107 29.1698 27.3382 28.5811 27.6758C27.6926 28.1933 26.8595 28.8122 25.8932 29.4647H25.8821Z" fill="white"/>
<path d="M29.1697 34.2128C29.1697 34.9329 29.1919 35.5179 29.1475 36.1142C29.1364 36.283 28.9476 36.4743 28.7921 36.5868C27.9627 37.1869 27.1223 37.1869 26.2707 36.5868C26.1819 36.5305 26.1041 36.463 25.9597 36.3618C27.0038 35.6529 28.0368 34.9666 29.1586 34.2128H29.1697Z" fill="white"/>
<path d="M24.2047 31.3774C24.127 31.4786 24.0381 31.7037 23.8937 31.7487C23.7271 31.8049 23.4161 31.7937 23.3162 31.6812C22.4942 30.7023 21.6945 29.6897 20.9281 28.6658C20.8392 28.5533 20.9281 28.1483 21.0614 28.0695C21.228 27.957 21.6279 27.9345 21.7278 28.047C22.5498 29.0259 23.3384 30.0385 24.127 31.0511C24.1714 31.1073 24.1603 31.2199 24.1936 31.3774H24.2047Z" fill="white"/>
<path d="M34.2013 28.4409C34.1013 28.6434 34.0458 28.8122 33.9458 28.9359C33.2905 29.7798 32.624 30.6124 31.9687 31.445C31.7244 31.76 31.4245 31.9963 31.0579 31.6925C30.6914 31.3887 30.858 31.0624 31.1024 30.7474C31.7799 29.9036 32.4352 29.0372 33.135 28.2046C33.2683 28.0471 33.5793 27.9683 33.7903 27.9908C33.9347 28.0133 34.0458 28.2721 34.1791 28.4409H34.2013Z" fill="white"/>
<path d="M25.9154 32.2437C25.7044 31.2649 25.8821 30.6461 26.7485 30.2073C27.5593 29.8022 28.2702 29.2059 29.0255 28.6996C29.3587 29.6109 29.2254 30.0047 28.4923 30.511C27.6482 31.0736 26.8151 31.6474 25.9154 32.255V32.2437Z" fill="white"/>
<path d="M29.1696 31.4111C29.1696 31.9174 29.1807 32.2775 29.1696 32.6375C29.1696 32.7613 29.0808 32.9301 28.9919 32.9976C27.9923 33.6726 26.9926 34.3365 25.9819 35.0115C25.6931 33.9989 25.793 33.6951 26.5817 33.1663C27.4036 32.615 28.2255 32.0525 29.1807 31.4111H29.1696Z" fill="white"/>
<path d="M37.467 29.8248C37.2226 29.4535 36.956 29.2284 36.9671 29.0147C36.9671 28.8346 37.3004 28.6546 37.4781 28.4746C37.6669 28.6771 37.9557 28.8572 38.0001 29.0709C38.0334 29.2397 37.7335 29.4647 37.467 29.8135V29.8248Z" fill="white"/>
<path d="M18.329 29.0147C17.9847 29.2735 17.7848 29.5548 17.5626 29.566C17.3849 29.566 17.0406 29.2285 17.0628 29.0822C17.0961 28.8572 17.3627 28.5646 17.5737 28.5196C17.7403 28.4859 17.9736 28.7784 18.329 29.0259V29.0147Z" fill="white"/>
</g>
<defs>
<clipPath id="clip0_203_189">
<rect width="32" height="33" fill="white" transform="translate(6 10)"/>
</clipPath>
</defs>
</svg>
