<svg width="50" height="50" viewBox="0 0 50 50" fill="none" xmlns="http://www.w3.org/2000/svg">
<g clip-path="url(#clip0_203_210)">
<path d="M25.4967 18C30.8046 18 36.1125 18 41.4203 18C42.7088 18 43.0033 18.2813 43.0033 19.5077C43.0033 23.8705 43.0033 28.2334 43.0033 32.5962C43.0033 33.6526 42.662 33.9861 41.5776 33.9894C40.6673 33.9927 39.7537 33.9992 38.8434 33.9861C38.5154 33.9796 38.3614 34.0712 38.1841 34.3884C38.0201 34.6828 37.5783 35 37.2604 34.9967C36.9424 34.9967 36.6312 34.6075 36.3166 34.3851C36.1292 34.2543 35.9451 34.0058 35.7577 34.0058C28.9237 33.9861 22.0897 33.9861 15.2557 34.0058C15.0683 34.0058 14.8775 34.2445 14.6901 34.3753C14.3755 34.5945 14.0676 34.9869 13.753 34.9935C13.4351 35 12.9665 34.6893 12.826 34.395C12.6452 34.0189 12.4411 33.9796 12.1031 33.9829C11.1928 33.9927 10.2825 33.9894 9.36881 33.9829C8.36479 33.9861 8 33.6362 8 32.6747C8 28.2235 8 23.7691 8 19.318C8 18.3532 8.36145 18 9.36881 18C14.7436 18 20.1185 18 25.4967 18ZM34.9177 22.716C33.0167 22.716 31.5442 24.1452 31.5274 26.0094C31.5107 27.7788 33.1205 29.3322 34.9444 29.3093C36.7684 29.2865 38.3079 27.7722 38.2912 26.016C38.2744 24.1354 36.8253 22.716 34.9177 22.716ZM25.5 24.6783C26.2731 24.6783 27.0462 24.6914 27.8193 24.6751C28.4317 24.662 28.8333 24.2957 28.8735 23.7593C28.9137 23.2197 28.5054 22.7128 27.8862 22.6964C26.2965 22.6604 24.7035 22.6604 23.1138 22.6964C22.498 22.7095 22.0596 23.223 22.1332 23.7593C22.2135 24.3382 22.5515 24.6783 23.1841 24.6783C23.9572 24.6783 24.7303 24.6783 25.5033 24.6783H25.5ZM18.4183 22.6964C17.8394 22.7095 17.4009 23.1739 17.4277 23.7462C17.4545 24.2826 17.8996 24.6849 18.4585 24.6751C18.9973 24.6653 19.4625 24.2205 19.4692 23.7037C19.4759 23.1608 18.9772 22.6833 18.4183 22.6964ZM14.7336 28.2988C14.7336 27.7264 14.3521 27.3372 13.7697 27.3209C13.164 27.3045 12.7155 27.7134 12.7122 28.289C12.7122 28.8286 13.2209 29.3224 13.7597 29.3028C14.2851 29.2832 14.7303 28.8253 14.7336 28.2988ZM19.4726 28.2824C19.4659 27.7297 18.9839 27.3013 18.3949 27.3209C17.826 27.3405 17.421 27.7559 17.4311 28.3119C17.4411 28.8482 17.8829 29.293 18.4217 29.3061C18.9639 29.3192 19.4793 28.8155 19.4726 28.2857V28.2824ZM14.7336 23.6776C14.7269 23.1379 14.2952 22.7062 13.7497 22.6964C13.1874 22.6866 12.7055 23.1543 12.7155 23.7103C12.7222 24.2532 13.1506 24.6653 13.7129 24.6751C14.3153 24.6849 14.7403 24.2695 14.7336 23.6808V23.6776ZM24.1479 28.3053C24.1546 27.733 23.7731 27.3405 23.1908 27.3209C22.6017 27.3013 22.1232 27.7297 22.1131 28.2857C22.1064 28.809 22.6319 29.3192 23.1673 29.3061C23.7028 29.293 24.1412 28.8449 24.1479 28.3086V28.3053ZM27.8193 27.3209C27.2369 27.334 26.8487 27.7264 26.8487 28.2955C26.8487 28.858 27.334 29.329 27.8862 29.3061C28.3983 29.2832 28.8835 28.7926 28.8835 28.2955C28.8835 27.7395 28.4083 27.3078 27.8193 27.3209Z" fill="white"/>
<path d="M36.2363 26.0454C36.2028 26.7551 35.6105 27.3045 34.8976 27.2947C34.1647 27.2816 33.5489 26.6504 33.5824 25.9473C33.6125 25.2801 34.255 24.6816 34.9344 24.6914C35.664 24.7012 36.2731 25.3357 36.2397 26.0487L36.2363 26.0454Z" fill="white"/>
</g>
<defs>
<clipPath id="clip0_203_210">
<rect width="35" height="17" fill="white" transform="translate(8 18)"/>
</clipPath>
</defs>
</svg>
