<svg width="50" height="50" viewBox="0 0 50 50" fill="none" xmlns="http://www.w3.org/2000/svg">
<g clip-path="url(#clip0_203_208)">
<path d="M7 37V13.85H9.30754C9.33003 13.8909 9.37502 13.9318 9.37502 13.9727C9.39751 15.6863 9.29855 15.6454 11.1338 15.6272C11.1608 15.6272 11.1833 15.6272 11.2103 15.6272C13.2524 15.6409 12.9645 15.6863 13.0635 13.85H14.143C14.1655 13.8909 14.2105 13.9363 14.2105 13.9772C14.2285 15.6954 14.1475 15.6454 15.9738 15.6272C16.0008 15.6272 16.0233 15.6272 16.0503 15.6272C18.0744 15.6363 17.8 15.7091 17.9035 13.85H18.983C19.0055 13.8954 19.0505 13.9409 19.0505 13.9818C19.064 15.6591 18.9785 15.65 20.7373 15.6272C20.7643 15.6272 20.7868 15.6272 20.8138 15.6272C22.9324 15.6363 22.6265 15.7181 22.739 13.8454H27.525C27.525 14.8181 27.543 15.7772 27.5115 16.7318C27.507 16.9272 27.3226 17.1227 27.2011 17.3C26.8053 17.8772 26.8413 18.5181 27.3091 18.9591C27.7724 19.4 28.4876 19.4 28.9554 18.9636C29.4232 18.5227 29.4457 17.8909 29.0814 17.3C28.9104 17.0227 28.7755 16.6772 28.7575 16.3545C28.7125 15.5454 28.744 14.7272 28.744 13.8545H31.1595C31.1595 14.3091 31.1595 14.7863 31.1595 15.2591C31.1775 16.6818 30.8176 18.2636 31.3214 19.4818C31.8252 20.7 33.1882 21.5591 34.1732 22.5727C34.6321 23.0454 35.1224 23.4863 35.5497 23.9863C35.7566 24.2318 35.923 24.5636 35.986 24.8772C36.1299 25.5954 36.5797 26.0318 37.2635 26.0181C37.9157 26 38.4015 25.5227 38.4285 24.8681C38.4555 24.1727 38.0236 23.7 37.3264 23.5545C37.0116 23.4909 36.6607 23.35 36.4358 23.1272C35.2033 21.9272 33.9888 20.7045 32.8058 19.4545C32.5764 19.2136 32.401 18.8136 32.392 18.4818C32.347 16.9363 32.374 15.3909 32.374 13.8591C33.1297 13.7 33.6065 13.7227 33.9483 14.5591C34.4161 15.7091 35.4417 16.2591 36.6832 16.2227C37.9202 16.1863 38.8783 15.5863 39.3281 14.4136C39.5395 13.8636 39.8274 13.7545 40.3222 13.7818C40.8665 13.8136 41.4152 13.7909 42 13.7909V36.9954C41.2893 36.9954 40.5696 37.0136 39.8499 36.9772C39.7149 36.9727 39.5305 36.7727 39.4676 36.6227C38.9413 35.3045 37.9877 34.5636 36.5842 34.5681C35.1808 34.5727 34.2452 35.3272 33.7054 36.6409C33.629 36.8227 33.2556 36.9818 33.0172 36.9818C29.819 37.0045 26.6209 36.9954 23.4227 36.9954C18.2363 36.9954 13.05 36.9954 7.86364 36.9954H7V37ZM22.7165 27.2318C24.8486 27.2318 26.9088 27.2318 28.9689 27.2318C29.5357 27.2318 30.0709 27.1954 30.5747 27.6409C31.047 28.0591 31.6408 27.8863 32.0591 27.4181C32.4819 26.9454 32.5044 26.3863 32.1176 25.8863C31.7353 25.3954 31.1505 25.15 30.6602 25.5591C30.035 26.0772 29.3692 26.0045 28.681 26.0045C27.0707 26.0045 25.4604 26.0045 23.8455 26.0045H22.73V24.7863H25.0645V23.5272H22.739V22.3227H25.0825V21.1136H22.766C22.64 20.0288 22.0058 19.3848 20.8633 19.1818V16.8727H19.6668V19.2272H18.4478V16.8818H17.2288V19.2454H16.0368V16.8954H14.8178V19.2363H13.5988V16.8772H12.4023V19.1727C11.8085 19.2863 11.1293 19.2136 10.8459 19.5227C10.5355 19.8545 10.594 20.5363 10.4771 21.15H8.22349V22.3591H10.549V23.5909H8.23249V24.8227H10.567V26.0272H8.24598V27.2591H10.5535V28.4909H8.22799V29.6954H10.4906C10.6075 30.2954 10.54 30.9818 10.8459 31.2681C11.1788 31.5772 11.849 31.5181 12.4562 31.6363V33.9181H13.6482V31.55H14.8403V33.9091H16.0862V31.5591H17.2782V33.9227H18.4747V31.5681H19.6937V33.9136H20.9127V31.6363C21.511 31.5136 22.1857 31.5772 22.4691 31.2681C22.775 30.9318 22.712 30.2545 22.811 29.7227H27.57C27.3451 31.0227 27.9343 32.3454 27.0437 33.5545C26.6928 34.0318 26.9807 34.6 27.4575 34.9454C27.9748 35.3227 28.5191 35.2681 28.9734 34.8318C29.3962 34.4227 29.5717 33.8409 29.1713 33.3909C28.7035 32.8591 28.7575 32.2909 28.753 31.6909C28.753 30.9272 28.7305 30.1636 28.7575 29.4C28.7845 28.7181 28.5101 28.4272 27.8219 28.4409C26.4859 28.4681 25.1545 28.45 23.8185 28.45C23.4542 28.45 23.0898 28.45 22.721 28.45V27.2318H22.7165ZM35.6081 32.1181H37.7268C37.9067 32.7909 38.7568 32.9454 40.1738 32.6272V30.3136H37.8752C37.9067 30.3818 37.9337 30.4454 37.9652 30.5136C37.7403 30.6409 37.4839 30.9091 37.2949 30.8681C36.6202 30.7136 35.6981 31.4091 35.2663 30.3227H33.0172V32.7818C33.8674 32.4636 34.8795 33.2545 35.6081 32.1227V32.1181Z" fill="white"/>
<path d="M11.7545 14.3727H10.657V12H11.7545V14.3727Z" fill="white"/>
<path d="M16.5944 14.3864H15.5059V12.0137H16.5944V14.3864Z" fill="white"/>
<path d="M21.4301 14.3864H20.3416V12.0137H21.4301V14.3864Z" fill="white"/>
<path d="M21.4344 30.2455H11.8579V20.5728H21.4344V30.2455ZM19.6622 22.3909H13.6842V28.3909H19.6622V22.3909Z" fill="white"/>
</g>
<defs>
<clipPath id="clip0_203_208">
<rect width="35" height="25" fill="white" transform="translate(7 12)"/>
</clipPath>
</defs>
</svg>
