<svg width="50" height="50" viewBox="0 0 50 50" fill="none" xmlns="http://www.w3.org/2000/svg">
<g clip-path="url(#clip0_203_206)">
<path d="M7 37.4545V26.1697H43.9755V37.4545H7ZM18.3856 36.2485C21.474 36.2485 24.5624 36.2363 27.6509 36.2606C28.3862 36.2606 28.7233 36.0303 28.711 35.2606C28.6804 32.9697 28.6865 30.6788 28.711 28.3879C28.7171 27.697 28.472 27.3818 27.7367 27.3818C21.5598 27.3939 15.389 27.3939 9.21216 27.3818C8.48294 27.3818 8.22557 27.6788 8.2317 28.3818C8.25621 30.6485 8.2317 32.9091 8.24395 35.1757C8.24395 36.1333 8.36651 36.2485 9.36535 36.2485C12.3741 36.2485 15.3829 36.2485 18.3856 36.2485ZM33.8339 27.3939C32.7922 27.3757 31.8914 28.2545 31.8914 29.2848C31.8914 30.2848 32.737 31.1515 33.742 31.1879C34.7776 31.2242 35.6968 30.3636 35.7213 29.3333C35.7458 28.303 34.8756 27.406 33.8278 27.3939H33.8339ZM37.0081 29.2909C37.0081 30.3273 37.9028 31.2 38.9445 31.1879C39.9863 31.1757 40.8687 30.2788 40.8442 29.2545C40.8196 28.2545 39.9617 27.4121 38.9445 27.3939C37.9028 27.3818 37.0081 28.2606 37.0081 29.2909ZM31.8914 34.3576C31.8914 35.3939 32.7922 36.2666 33.8339 36.2485C34.8756 36.2363 35.7519 35.3333 35.7274 34.3091C35.7029 33.3091 34.8389 32.4666 33.8216 32.4545C32.7799 32.4424 31.8852 33.3212 31.8914 34.3576ZM38.9874 32.4545C37.9518 32.4182 37.0265 33.2788 37.0081 34.303C36.9836 35.303 37.8109 36.1879 38.822 36.2424C39.8576 36.303 40.7951 35.4606 40.8442 34.4303C40.8932 33.406 40.0353 32.4909 38.9935 32.4485L38.9874 32.4545Z" fill="white"/>
<path d="M7 22.2788V11H44V22.2788H7ZM15.8731 21.0727C18.0792 21.0727 20.2913 21.0727 22.4974 21.0727C23.441 21.0727 23.582 20.9394 23.5881 20.0424C23.5881 17.7818 23.5759 15.5152 23.6004 13.2545C23.6065 12.5212 23.3553 12.2061 22.5831 12.2121C18.1404 12.2303 13.6916 12.2303 9.24892 12.2121C8.47681 12.2121 8.21944 12.5212 8.2317 13.2545C8.25621 15.5152 8.23783 17.7818 8.24395 20.0424C8.24395 20.9455 8.3849 21.0727 9.32859 21.0788C11.5101 21.0788 13.6916 21.0788 15.8731 21.0788V21.0727ZM42.7683 16.7273C42.7683 15.5697 42.7438 14.4121 42.7744 13.2545C42.7928 12.5273 42.5354 12.1939 41.7633 12.2061C39.876 12.2364 37.9886 12.2303 36.0951 12.2061C35.3965 12.2 35.0717 12.4424 35.0778 13.1697C35.1024 15.4848 35.0962 17.8 35.0778 20.1152C35.0778 20.7697 35.3107 21.0848 36.0093 21.0788C37.9518 21.0606 39.8943 21.0606 41.8369 21.0788C42.5293 21.0848 42.7867 20.7758 42.7683 20.1152C42.7438 18.9818 42.7622 17.8545 42.7622 16.7212L42.7683 16.7273ZM28.6987 14.1333C28.6987 13.103 27.8163 12.2182 26.7746 12.2242C25.7329 12.2242 24.8504 13.1152 24.8627 14.1455C24.875 15.1455 25.7329 15.9939 26.7501 16.0182C27.7918 16.0364 28.6926 15.1636 28.6987 14.1333ZM33.8155 14.1515C33.8339 13.1212 32.9515 12.2303 31.9097 12.2242C30.868 12.2182 29.9733 13.097 29.9795 14.1273C29.9795 15.1273 30.8374 15.9879 31.8485 16.0182C32.8902 16.0485 33.8032 15.1818 33.8155 14.1515ZM28.6987 19.2C28.711 18.1697 27.8225 17.2848 26.7807 17.2788C25.739 17.2788 24.8504 18.1636 24.8627 19.1939C24.875 20.1939 25.7267 21.0485 26.744 21.0727C27.7857 21.097 28.6926 20.2303 28.7049 19.2H28.6987ZM33.8155 19.2182C33.8339 18.1879 32.9576 17.2909 31.9159 17.2788C30.8741 17.2667 29.9795 18.1455 29.9795 19.1758C29.9795 20.1758 30.8251 21.0364 31.8362 21.0727C32.8779 21.1091 33.791 20.2485 33.8155 19.2182Z" fill="white"/>
<path d="M38.9446 24.8181V23.6666H42.701V24.8181H38.9446Z" fill="white"/>
<path d="M12.0432 23.6425V24.8061H8.29297V23.6425H12.0432Z" fill="white"/>
<path d="M12.0432 38.8424V39.9939H8.28687V38.8424H12.0432Z" fill="white"/>
<path d="M42.7255 38.8303V40H38.9937V38.8303H42.7255Z" fill="white"/>
<path d="M9.56152 18.5575C12.4416 13.5393 19.3355 13.4727 22.2401 18.5151V13.5272H9.56152V18.5575ZM21.1983 19.7818C20.849 17.7818 18.3611 16.0181 15.91 16.0181C13.4588 16.0181 10.9648 17.7939 10.6339 19.7515H15.3095V17.3151H16.5718V19.7757H21.1983V19.7818Z" fill="white"/>
<path d="M22.3197 32.4606V31.2243C21.8846 31.2 21.5047 31.1758 21.0757 31.1515C21.0451 30.7515 21.0206 30.3697 20.9899 29.9576H19.7889C19.7644 30.3152 19.7398 30.6909 19.7092 31.1455C19.3293 31.1636 18.9494 31.1879 18.453 31.2182V32.4606L18.4775 32.4364H17.209V29.9576H15.9467V32.4303H14.6231L14.6476 32.4546V31.2243C14.2064 31.1939 13.8203 31.1697 13.3853 31.1455C13.3669 30.7576 13.3485 30.4 13.3301 29.9758H12.1107C12.0862 30.3333 12.0616 30.7152 12.0371 31.1455C11.6449 31.1636 11.2834 31.1818 10.8545 31.2061V32.4121C11.2099 32.4303 11.5959 32.4546 12.0249 32.4788V34.9091H9.57373V28.6909H27.3629V34.9212H24.9056V33.7515C25.2978 33.7273 25.6839 33.703 26.1067 33.6727V32.4788C25.7451 32.4546 25.3591 32.4303 24.8872 32.4V29.9515H23.6249V32.4242H22.3013L22.3258 32.4485L22.3197 32.4606Z" fill="white"/>
<path d="M14.623 32.4364V33.6788C15.0458 33.7031 15.4318 33.7212 15.8608 33.7455V34.9394H13.4158V32.4606C13.8202 32.4606 14.2308 32.4606 14.6475 32.4606L14.623 32.4364Z" fill="white"/>
<path d="M18.4529 32.4606H19.6907V34.9333H17.2273V33.7515H18.4774C18.4774 33.2606 18.4774 32.8484 18.4774 32.4424L18.4529 32.4666V32.4606Z" fill="white"/>
<path d="M22.2951 32.4364V33.6788C22.7179 33.7031 23.104 33.7212 23.5329 33.7455V34.9394H21.0879V32.4606C21.4923 32.4606 21.9029 32.4606 22.3196 32.4606L22.2951 32.4364Z" fill="white"/>
<path d="M33.7849 30.2303C33.4969 29.7455 33.2028 29.4788 33.2273 29.2364C33.2456 29.0303 33.6256 28.7091 33.8339 28.7152C34.0423 28.7212 34.3977 29.0727 34.4038 29.2788C34.4038 29.5212 34.1035 29.7697 33.7849 30.2303Z" fill="white"/>
<path d="M38.9813 28.4121C39.2509 28.8182 39.5696 29.0909 39.5205 29.2788C39.4593 29.5273 39.1161 29.703 38.8955 29.9151C38.6994 29.6848 38.3808 29.4667 38.344 29.2121C38.3195 29.0242 38.6688 28.7879 38.9813 28.4121Z" fill="white"/>
<path d="M34.7287 34.4C34.2752 34.6666 34.0056 34.9515 33.7604 34.9333C33.5521 34.9151 33.1844 34.4848 33.2335 34.3394C33.307 34.0909 33.6318 33.806 33.8891 33.7636C34.0791 33.7333 34.3303 34.0727 34.7348 34.3939L34.7287 34.4Z" fill="white"/>
<path d="M39.8513 34.3273C39.4163 34.6303 39.1712 34.9334 38.926 34.9334C38.7177 34.9334 38.5093 34.5758 38.3071 34.3819C38.5216 34.1637 38.7054 33.8243 38.9567 33.7697C39.1466 33.7273 39.4224 34.0425 39.8575 34.3334L39.8513 34.3273Z" fill="white"/>
<path d="M9.56152 18.5575V13.5272H22.2401V18.509C19.3355 13.4666 12.4416 13.5333 9.56152 18.5515V18.5575Z" fill="white"/>
<path d="M21.1982 19.7819H16.5717V17.3213H15.3093V19.7576H10.6338C10.9708 17.794 13.4649 16.0243 15.9099 16.0243C18.361 16.0243 20.8489 17.7879 21.1982 19.7879V19.7819Z" fill="white"/>
<path d="M41.4264 19.7697H36.4138V13.5515H41.4264V19.7697ZM38.3318 14.7636V18.4909H39.5023V14.7576H38.3318V14.7636Z" fill="white"/>
<path d="M27.6998 14.1212C27.2586 14.4121 27.0012 14.703 26.7561 14.6969C26.5478 14.6909 26.1617 14.2788 26.1985 14.1333C26.2598 13.8848 26.5723 13.5818 26.8235 13.5333C27.0135 13.4969 27.277 13.8242 27.6998 14.1272V14.1212Z" fill="white"/>
<path d="M32.8106 14.1152C32.3694 14.4061 32.1121 14.703 31.867 14.697C31.6586 14.697 31.2664 14.2849 31.3032 14.1394C31.3645 13.8909 31.6709 13.5818 31.9221 13.5333C32.1121 13.497 32.3817 13.8182 32.8045 14.1212L32.8106 14.1152Z" fill="white"/>
<path d="M26.7869 18.2667C27.081 18.7031 27.3752 18.9576 27.3691 19.2001C27.3629 19.4061 26.9462 19.7879 26.7992 19.7516C26.5479 19.6849 26.2415 19.3819 26.1925 19.1334C26.1557 18.9455 26.4866 18.6849 26.793 18.2667H26.7869Z" fill="white"/>
<path d="M31.8547 20.1091C31.5728 19.6182 31.2848 19.3515 31.3093 19.103C31.3277 18.8969 31.7138 18.5818 31.9282 18.5879C32.1366 18.6 32.4859 18.9515 32.4859 19.1576C32.4859 19.4 32.1795 19.6485 31.8547 20.103V20.1091Z" fill="white"/>
</g>
<defs>
<clipPath id="clip0_203_206">
<rect width="37" height="29" fill="white" transform="translate(7 11)"/>
</clipPath>
</defs>
</svg>
