<svg width="50" height="50" viewBox="0 0 50 50" fill="none" xmlns="http://www.w3.org/2000/svg">
<g clip-path="url(#clip0_203_186)">
<path d="M27.2738 34.3511C27.6586 35.2879 28.0434 36.2246 28.4347 37.1613C28.5912 37.536 28.7412 37.943 28.2651 38.1562C27.776 38.3694 27.5869 37.9882 27.4304 37.6071C27.026 36.6316 26.6086 35.6626 26.0608 34.7065C26.0608 35.2556 26.0608 35.8047 26.0608 36.3538C26.0608 37.9624 26.0608 39.5774 26.0608 41.186C26.0608 41.5995 26.0282 42.0194 25.4934 42.0065C24.9586 41.9935 24.9521 41.5607 24.9586 41.1537C24.9586 39.0025 24.9586 36.8577 24.8347 34.6741C24.4695 35.5334 24.1043 36.3926 23.739 37.2518C23.6608 37.4391 23.6282 37.6781 23.4912 37.8009C23.3021 37.9753 23.0282 38.0593 22.7934 38.182C22.6956 37.9172 22.4477 37.6071 22.5195 37.3939C22.7934 36.5605 23.1717 35.753 23.5108 34.939C23.5956 34.7388 23.6673 34.532 23.6543 34.2672C23.5108 34.3899 23.3608 34.5126 23.2304 34.6418C22.2064 35.6496 21.2412 36.7285 20.1456 37.6458C19.539 38.1562 19.2977 39.3319 18.1043 38.9573C17.6869 37.7363 18.9064 37.4843 19.4347 36.8835C20.5108 35.6561 21.7434 34.5579 22.839 33.2981C21.9847 33.647 21.1304 33.9958 20.2695 34.3447C20.1456 34.3964 20.0151 34.448 19.8912 34.4997C19.5195 34.6548 19.1217 34.8292 18.8999 34.3253C18.6586 33.7697 19.1217 33.6276 19.4999 33.4661C20.3021 33.1302 21.1043 32.8136 21.9064 32.4777C22.0564 32.4131 22.2064 32.3291 22.3304 32.1288C21.789 32.1288 21.2543 32.1288 20.713 32.1288C19.1347 32.1288 17.5499 32.1288 15.9717 32.1288C15.5412 32.1288 14.9934 32.1934 15.013 31.5668C15.0325 31.0241 15.5282 31.0306 15.9521 31.0306C17.8564 31.0306 19.7543 31.0306 21.6586 31.0306C21.8804 31.0306 22.0956 31.0306 22.3173 31.0306L22.3499 30.8949C21.3912 30.5009 20.439 30.1068 19.4804 29.7127C19.1151 29.5641 18.6977 29.4091 18.8934 28.8987C19.1086 28.3367 19.5521 28.5499 19.9304 28.7049C20.9021 29.0925 21.8608 29.4995 22.8977 29.8161C22.7608 29.661 22.6238 29.506 22.4804 29.3639C21.1564 28.046 19.826 26.7346 18.4956 25.4167C18.3847 25.3069 18.2021 25.2035 18.1695 25.0743C18.1108 24.803 18.1304 24.5123 18.1173 24.2345C18.3977 24.2603 18.776 24.1828 18.9456 24.3378C19.9173 25.2293 20.8434 26.179 21.7825 27.1093C22.4021 27.723 23.0217 28.3432 23.7782 28.8729C23.3738 27.8974 22.9434 26.9348 22.5782 25.9464C22.4869 25.7074 22.4934 25.3392 22.6238 25.1454C22.8521 24.803 23.3543 24.9774 23.563 25.4684C23.9999 26.4826 24.4173 27.5033 24.9782 28.5176C24.9782 28.285 24.9782 28.0589 24.9782 27.8263C24.9782 21.5923 24.9782 15.3517 24.9782 9.11762C24.9782 8.93674 24.913 8.71709 24.9977 8.58143C25.1282 8.36178 25.3564 8.20028 25.5456 8.00647C25.7217 8.20028 25.9369 8.38116 26.0673 8.60727C26.1456 8.74939 26.0804 8.96258 26.0804 9.14346C26.0804 15.3582 26.0804 21.5729 26.0804 27.7876C26.0804 28.0266 26.0804 28.2656 26.0804 28.5047C26.1195 28.5111 26.1651 28.524 26.2043 28.5305C26.6151 27.5615 27.039 26.5989 27.4304 25.6234C27.5999 25.2035 27.8021 24.8224 28.3108 25.0549C28.7934 25.2746 28.5912 25.6945 28.4412 26.0563C28.0499 26.993 27.6717 27.9232 27.3847 28.9375C27.5412 28.7954 27.6977 28.6597 27.8477 28.5176C29.2238 27.1545 30.5999 25.7914 31.9825 24.4283C32.2499 24.1634 32.5434 23.8727 32.9151 24.228C33.3064 24.5962 33.0651 24.9193 32.7717 25.21C31.3956 26.5731 30.0195 27.9426 28.6369 29.2928C28.4673 29.4608 28.2195 29.5512 28.0108 29.674L28.213 29.9001C29.1977 29.4995 30.1825 29.0925 31.1673 28.692C31.539 28.5434 31.9369 28.369 32.1586 28.8729C32.3738 29.3768 31.976 29.5512 31.6043 29.6998C30.6456 30.1003 29.6804 30.4879 28.7412 31.0306C29.0021 31.0306 29.2564 31.0306 29.5173 31.0306C31.4217 31.0306 33.3195 31.0306 35.2238 31.0306C35.6477 31.0306 36.0456 31.0952 36.026 31.6314C36.0064 32.1547 35.5956 32.1353 35.2173 32.1353C33.2673 32.1353 31.3238 32.1353 29.3738 32.1353C29.1586 32.1353 28.9434 32.1547 28.7021 32.2903C29.6999 32.7038 30.7043 33.1108 31.6956 33.5372C32.2238 33.7633 32.4064 34.1961 32.0673 34.448C31.8847 34.5837 31.5064 34.6095 31.2717 34.5256C30.2477 34.1509 29.2499 33.718 28.1738 33.3886C28.3173 33.5436 28.4477 33.6987 28.5977 33.8472C29.9869 35.2297 31.3825 36.6057 32.7782 37.9818C33.0586 38.2596 33.2869 38.5696 32.9673 38.9185C32.6021 39.319 32.2695 39.0477 31.9825 38.7635C30.639 37.4327 29.2956 36.1019 27.9456 34.7711C27.7695 34.5966 27.5869 34.4351 27.4043 34.2672C27.3651 34.2995 27.326 34.3253 27.2869 34.3576L27.2738 34.3511ZM24.9651 30.1262C24.1238 30.4556 23.7325 31.1275 23.876 31.9027C24.0195 32.6779 24.7238 33.2335 25.5456 33.2271C26.3673 33.2206 26.9999 32.665 27.1434 31.8317C27.2738 31.0758 26.889 30.4298 26.0608 30.1197C26.0608 30.5848 26.1195 31.0435 26.0347 31.4699C25.989 31.7089 25.6956 31.8963 25.513 32.1095C25.3304 31.9027 25.0369 31.7154 24.9847 31.4764C24.8999 31.05 24.9586 30.5913 24.9586 30.1262H24.9651Z" fill="white"/>
</g>
<defs>
<clipPath id="clip0_203_186">
<rect width="21" height="34" fill="white" transform="translate(15 8)"/>
</clipPath>
</defs>
</svg>
