<svg width="50" height="50" viewBox="0 0 50 50" fill="none" xmlns="http://www.w3.org/2000/svg">
<path d="M23.9949 41L24.3041 25L24.6133 8.99999" stroke="white" stroke-width="2" stroke-miterlimit="10"/>
<g clip-path="url(#clip0_203_209)">
<path d="M34.8913 37.8487L15.9814 32.819V12.5345L34.6695 17.6333L34.8913 37.8487Z" fill="white" stroke="white" stroke-width="2" stroke-miterlimit="10"/>
<path d="M8.36621 20.0997L43.4138 29.3738" stroke="white" stroke-width="2" stroke-miterlimit="10"/>
<g clip-path="url(#clip1_203_209)">
<path d="M18.7832 23.0018L30.9411 26.1439" stroke="#231F20" stroke-miterlimit="10"/>
<path d="M20.3765 24.8728C20.4363 24.8183 20.4393 24.7249 20.3849 24.6652L18.8489 23.019L20.9913 22.3235C21.068 22.2977 21.1109 22.2146 21.0852 22.138C21.0595 22.0615 20.9764 22.0187 20.8997 22.0445L18.5381 22.8111C18.4916 22.8264 18.4541 22.8653 18.4415 22.9137C18.4289 22.9622 18.4426 23.0144 18.4759 23.0503L20.166 24.864C20.185 24.8841 20.2113 24.9 20.237 24.9066C20.2854 24.9191 20.3369 24.9081 20.3737 24.8721L20.3765 24.8728Z" fill="#231F20"/>
<mask id="path-6-inside-1_203_209" fill="white">
<path d="M28.6366 27.0073C28.6109 26.9307 28.6538 26.8476 28.7305 26.8218L30.8729 26.1263L29.3426 24.4816C29.2882 24.4219 29.2912 24.3285 29.351 24.274C29.4108 24.2196 29.5043 24.2224 29.5587 24.2821L31.2488 26.0958C31.282 26.1317 31.2958 26.1839 31.2832 26.2323C31.2706 26.2807 31.2331 26.3197 31.1865 26.335L28.8249 27.1016C28.7984 27.1099 28.7677 27.1111 28.7421 27.1045C28.6936 27.0919 28.654 27.0574 28.6394 27.008L28.6366 27.0073Z"/>
</mask>
<path d="M28.6366 27.0073C28.6109 26.9307 28.6538 26.8476 28.7305 26.8218L30.8729 26.1263L29.3426 24.4816C29.2882 24.4219 29.2912 24.3285 29.351 24.274C29.4108 24.2196 29.5043 24.2224 29.5587 24.2821L31.2488 26.0958C31.282 26.1317 31.2958 26.1839 31.2832 26.2323C31.2706 26.2807 31.2331 26.3197 31.1865 26.335L28.8249 27.1016C28.7984 27.1099 28.7677 27.1111 28.7421 27.1045C28.6936 27.0919 28.654 27.0574 28.6394 27.008L28.6366 27.0073Z" fill="#231F20"/>
<path d="M28.6366 27.0073L27.6881 27.3264L27.8603 27.8395L28.3847 27.975L28.6366 27.0073ZM28.7305 26.8218L28.4226 25.8712L28.4126 25.8745L28.7305 26.8218ZM30.8729 26.1263L31.1808 27.0769L32.6735 26.5923L31.606 25.4451L30.8729 26.1263ZM29.3426 24.4816L28.6027 25.1555L28.6094 25.1628L29.3426 24.4816ZM29.5587 24.2821L28.8188 24.9561L28.826 24.9638L29.5587 24.2821ZM31.2488 26.0958L31.9842 25.417L31.9814 25.414L31.2488 26.0958ZM31.1865 26.335L31.4943 27.2856L31.4982 27.2844L31.1865 26.335ZM28.8249 27.1016L29.1245 28.0549L29.1327 28.0522L28.8249 27.1016ZM28.6394 27.008L29.5992 26.7247L29.4395 26.1819L28.8913 26.0403L28.6394 27.008ZM29.5851 26.6882C29.7405 27.151 29.4793 27.6242 29.0484 27.7691L28.4126 25.8745C27.8283 26.071 27.4814 26.7105 27.6881 27.3264L29.5851 26.6882ZM29.0383 27.7724L31.1808 27.0769L30.565 25.1757L28.4226 25.8712L29.0383 27.7724ZM31.606 25.4451L30.0757 23.8004L28.6094 25.1628L30.1397 26.8075L31.606 25.4451ZM30.0824 23.8076C30.3884 24.143 30.3858 24.6831 30.0243 25.0123L28.6776 23.5358C28.1966 23.9739 28.188 24.7008 28.6027 25.1555L30.0824 23.8076ZM30.0243 25.0123C29.6882 25.3184 29.1478 25.3166 28.8189 24.956L30.2985 23.6082C29.8608 23.1283 29.1333 23.1207 28.6776 23.5358L30.0243 25.0123ZM28.826 24.9638L30.5161 26.7775L31.9814 25.414L30.2913 23.6004L28.826 24.9638ZM30.5134 26.7745C30.3204 26.5658 30.2402 26.2695 30.315 25.9821L32.2514 26.4825C32.3514 26.0983 32.2436 25.6977 31.9842 25.417L30.5134 26.7745ZM30.315 25.9821C30.3898 25.6947 30.6044 25.4746 30.8748 25.3856L31.4982 27.2844C31.8618 27.1647 32.1514 26.8668 32.2514 26.4825L30.315 25.9821ZM30.8787 25.3844L28.5171 26.1509L29.1327 28.0522L31.4943 27.2856L30.8787 25.3844ZM28.5254 26.1483C28.6026 26.1239 28.6778 26.1122 28.7487 26.1097C28.819 26.1072 28.9024 26.113 28.9939 26.1367L28.4902 28.0722C28.7101 28.129 28.9321 28.1154 29.1245 28.0548L28.5254 26.1483ZM28.9939 26.1367C29.2487 26.2025 29.5044 26.4023 29.5992 26.7247L27.6797 27.2914C27.8036 27.7124 28.1386 27.9813 28.4902 28.0722L28.9939 26.1367ZM28.8913 26.0403L28.8885 26.0395L28.3847 27.975L28.3876 27.9758L28.8913 26.0403Z" fill="black" mask="url(#path-6-inside-1_203_209)"/>
</g>
<g clip-path="url(#clip2_203_209)">
<path d="M26.2797 28.8247C26.2118 28.7807 26.1203 28.8013 26.076 28.8687L24.8625 30.7636L23.6491 28.8717C23.6048 28.8042 23.5133 28.7837 23.4454 28.8277C23.3775 28.8717 23.3568 28.9626 23.4011 29.0301L24.7385 31.1156C24.7651 31.1567 24.8123 31.1831 24.8625 31.1831C24.9127 31.1831 24.96 31.1567 24.9865 31.1156L26.324 29.0301C26.3387 29.0066 26.3476 28.9773 26.3476 28.9509C26.3476 28.901 26.324 28.8541 26.2797 28.8277L26.2797 28.8247Z" fill="#231F20"/>
<path d="M26.2794 20.3211C26.2115 20.3651 26.12 20.3446 26.0757 20.2771L24.8623 18.3851L23.6488 20.2742C23.6046 20.3416 23.513 20.3622 23.4451 20.3182C23.3772 20.2742 23.3566 20.1832 23.4008 20.1158L24.7383 18.0302C24.7649 17.9891 24.8121 17.9627 24.8623 17.9627C24.9125 17.9627 24.9597 17.9891 24.9863 18.0302L26.3237 20.1158C26.3385 20.1392 26.3474 20.1686 26.3474 20.195C26.3474 20.2448 26.3237 20.2918 26.2794 20.3182L26.2794 20.3211Z" fill="#231F20"/>
<path d="M24.8623 30.8311L24.8623 18.3146" stroke="#231F20" stroke-miterlimit="10"/>
</g>
</g>
<defs>
<clipPath id="clip0_203_209">
<rect width="36.0851" height="27.234" fill="white" transform="translate(5 12.4043)"/>
</clipPath>
<clipPath id="clip1_203_209">
<rect width="13.2637" height="2.96045" fill="white" transform="matrix(0.968189 0.250219 -0.25186 0.967764 18.8142 21.481)"/>
</clipPath>
<clipPath id="clip2_203_209">
<rect width="13.2204" height="2.97013" fill="white" transform="translate(23.3772 31.1831) rotate(-90)"/>
</clipPath>
</defs>
</svg>
