<svg width="50" height="50" viewBox="0 0 50 50" fill="none" xmlns="http://www.w3.org/2000/svg">
<path d="M15.7738 13.597C15.8292 12.6911 15.8195 11.8728 15.94 11.0708C16.2334 9.15175 17.7782 7.71004 19.6914 7.486C21.5035 7.27494 23.3808 8.31075 24.0685 10.0512C24.3748 10.8272 24.616 11.4604 25.6981 11.1357V13.597C26.1478 13.597 26.5161 13.5775 26.8811 13.6002C28.0903 13.6782 28.7878 14.412 28.791 15.6264C28.7943 22.8674 28.7943 30.1051 28.791 37.3461C28.791 38.6677 28.0577 39.4112 26.7117 39.4275C25.0462 39.447 23.3775 39.434 21.7121 39.434C21.4448 39.434 21.1743 39.434 20.9103 39.434C20.9103 41.6095 22.9669 44.0026 25.2841 44.1779C27.8263 44.3695 30.4076 44.389 32.9465 44.1714C35.4626 43.9571 37.4768 41.3595 37.3757 38.8657C37.0237 38.8333 36.662 38.7975 36.2122 38.7553V35.177C35.7592 35.1446 35.3941 35.1186 34.99 35.0861V26.5561C35.3648 26.5333 35.7266 26.5106 36.1992 26.4781C36.1992 25.491 36.2252 24.5072 36.1731 23.5298C36.1633 23.3674 35.8472 23.1564 35.6321 23.0785C32.8096 22.0556 30.9616 20.1496 30.2479 17.2142C29.2212 13.006 31.8938 8.74911 36.2154 7.68407C40.3905 6.65474 44.7871 9.32059 45.8105 13.4963C46.8143 17.5941 44.5818 21.6757 40.5599 23.007C39.9863 23.1953 39.8397 23.4486 39.869 23.9974C39.9114 24.8059 39.8788 25.6209 39.8788 26.4716C40.3188 26.4976 40.6838 26.5204 41.0879 26.5463V35.0959C40.6936 35.1154 40.3481 35.1316 39.9146 35.1543V38.7553C39.4681 38.7878 39.1096 38.8138 38.6957 38.8462C38.5881 40.3821 38.1579 41.8043 37.1639 43.0155C35.8439 44.6228 34.1361 45.4865 32.0632 45.5417C30.098 45.5937 28.1327 45.5677 26.1674 45.5482C23.0483 45.519 20.2357 43.1519 19.7077 40.0931C19.6164 39.5606 19.4274 39.408 18.8994 39.4177C17.1818 39.4502 15.4675 39.4372 13.7499 39.4275C12.2669 39.4177 11.5304 38.7131 11.5271 37.2422C11.5173 30.1019 11.5173 22.9616 11.5271 15.8212C11.5271 14.3016 12.2506 13.6067 13.7857 13.597C14.431 13.5905 15.0731 13.597 15.7771 13.597H15.7738ZM12.7917 22.8641C14.607 23.5753 15.2165 24.4617 15.2165 26.3288C15.2165 29.998 15.2165 33.6639 15.2165 37.3331C15.2165 37.5961 15.2165 37.8591 15.2165 38.1351H25.0755C25.0755 37.8267 25.0755 37.5604 25.0755 37.2974C25.0755 33.6055 25.0755 29.9103 25.0755 26.2184C25.0755 24.7117 25.6883 23.572 27.1517 23.0297C27.5688 22.8771 27.5819 22.6401 27.5786 22.3024C27.5721 20.221 27.5786 18.1396 27.5786 16.0583C27.5786 14.964 27.4743 14.8569 26.3923 14.8536C23.1591 14.8536 19.926 14.8536 16.6929 14.8536C15.6728 14.8536 14.6527 14.8536 13.6325 14.8536C13.1567 14.8536 12.7884 14.977 12.7884 15.5485C12.7884 17.974 12.7884 20.4029 12.7884 22.8641H12.7917ZM31.2778 15.4803C31.2973 19.2501 34.3316 22.2245 38.1416 22.205C41.8213 22.1855 44.8164 19.143 44.8034 15.4348C44.7904 11.7007 41.7398 8.66793 38.021 8.69066C34.2925 8.71339 31.2582 11.7689 31.2778 15.4835V15.4803ZM17.1557 13.5385H22.0543V11.2136C22.4552 11.1844 22.7713 11.1617 23.0842 11.139C22.918 9.78168 21.6534 8.71664 20.2128 8.69391C18.7918 8.66793 17.3513 9.78492 17.1753 11.1584C17.0742 11.9312 17.1557 12.7268 17.1557 13.5385ZM36.2089 27.7705C36.2089 29.7285 36.2024 31.6475 36.2252 33.5665C36.2252 33.6769 36.4697 33.875 36.6065 33.8782C37.6658 33.9042 38.7283 33.8912 39.8169 33.8912V27.7672H36.2089V27.7705ZM37.4865 23.4454V26.4749H38.5979V23.4454H37.4865ZM37.48 35.1706V37.5117H38.6142V35.1706H37.48ZM26.2293 25.6599L26.4151 25.8774H27.5134V24.2993C27.4352 24.2604 27.357 24.2182 27.2755 24.1792C26.9268 24.6728 26.5748 25.1663 26.226 25.6599H26.2293ZM27.5232 28.316V27.1698H26.3857V28.316H27.5232ZM26.3629 30.774H27.5232V29.6635H26.3629V30.774ZM27.5395 32.0728H26.3727V33.2126H27.5395V32.0728ZM27.559 34.5893H26.3694V35.6771H27.559V34.5893ZM26.3825 36.9694V38.1059C27.4482 38.2325 27.709 37.9501 27.458 36.9694H26.3825ZM14.0139 25.8872C13.8933 25.0916 13.6065 24.5364 12.8503 24.2539V25.8872H14.0139ZM23.3026 12.4118V13.5515H24.4335V12.4118H23.3026ZM13.9748 27.1568H12.8275V28.2933H13.9748V27.1568ZM12.8406 29.631V30.7708H13.9585V29.631H12.8406ZM13.9715 33.2126V32.0664H12.8275V33.2126H13.9715ZM12.8243 35.6706H13.9748V34.5569C13.7727 34.5406 13.6065 34.5211 13.4403 34.5179C13.248 34.5179 13.0589 34.5374 12.821 34.5504C12.808 34.7582 12.7884 34.9238 12.7884 35.0894C12.7884 35.281 12.8112 35.4693 12.8243 35.6739V35.6706ZM12.8699 36.9759C12.7037 38.0377 12.922 38.2553 13.9715 38.0799V36.9759H12.8699Z" fill="white"/>
<path d="M14.0398 22.1401H26.2846V16.1362H14.0398V22.1401ZM20.1377 25.9164C18.1496 25.9229 16.4874 27.5724 16.4646 29.5596C16.4418 31.5728 18.1203 33.2483 20.1605 33.2483C22.2008 33.2483 23.8728 31.5891 23.8662 29.5726C23.8597 27.5529 22.1845 25.9099 20.1377 25.9164ZM18.2833 35.7096V34.5731H17.1556V35.7096H18.2833ZM20.7342 34.5666H19.5902V35.6901H20.7342V34.5666ZM23.2307 34.5796H22.0932V35.6804H23.2307V34.5796Z" fill="white"/>
<path d="M31.2777 15.4771C31.2581 11.7657 34.2924 8.71019 38.0209 8.68421C41.7397 8.66148 44.7903 11.6942 44.8033 15.4284C44.8163 19.1365 41.8212 22.1823 38.1415 22.1985C34.3315 22.218 31.2972 19.2437 31.2777 15.4738V15.4771ZM38.034 9.94407C34.954 9.95057 32.5129 12.3956 32.5162 15.4706C32.5194 18.5261 35.0029 21.0036 38.0535 20.9971C41.0911 20.9906 43.5811 18.4904 43.5779 15.4479C43.5746 12.3891 41.1041 9.93433 38.034 9.94407Z" fill="white"/>
<path d="M27.5428 32.0696V33.2093H26.376V32.0696H27.5428Z" fill="white"/>
<path d="M18.2832 35.7096H17.1555V34.5731H18.2832V35.7096Z" fill="white"/>
<path d="M20.7343 34.5667V35.6901H19.5903V34.5667H20.7343Z" fill="white"/>
<path d="M23.2307 34.5796V35.6803H22.0933V34.5796H23.2307Z" fill="white"/>
<path d="M38.0145 20.7016C40.9143 20.7016 43.265 18.3596 43.265 15.4705C43.265 12.5815 40.9143 10.2395 38.0145 10.2395C35.1147 10.2395 32.7639 12.5815 32.7639 15.4705C32.7639 18.3596 35.1147 20.7016 38.0145 20.7016Z" stroke="white" stroke-width="4" stroke-miterlimit="10"/>
</svg>
