<svg width="50" height="50" viewBox="0 0 50 50" fill="none" xmlns="http://www.w3.org/2000/svg">
<g clip-path="url(#clip0_203_202)">
<path d="M23.9089 39C21.2575 39 18.6061 39 15.9548 39C15.0729 39 14.9083 38.8283 14.9024 37.9402C14.9024 37.5849 14.8907 37.2296 14.9318 36.8803C15.0553 35.8145 15.7843 35.1454 16.8483 35.1454C21.5691 35.1395 26.2899 35.1395 31.0106 35.1454C32.0747 35.1454 32.8095 35.8145 32.933 36.8803C32.9742 37.2296 32.9624 37.5908 32.9624 37.9402C32.9624 38.8342 32.7919 39.006 31.916 39.006C29.2469 39.006 26.572 39.006 23.903 39.006L23.9089 39Z" fill="white"/>
<path d="M39.0001 17.7257C38.7708 18.004 38.6474 18.3001 38.4416 18.377C38.2065 18.4599 37.8596 18.4303 37.6362 18.306C37.1894 18.0573 36.7955 17.6961 36.3723 17.406C28.5474 12.0001 18.0889 12.2843 10.5522 18.0987C10.4875 18.152 10.4228 18.1994 10.3523 18.2468C9.8702 18.5843 9.41752 18.5606 9.15297 18.1639C8.85315 17.702 9.01188 17.3231 9.41752 17.033C10.2112 16.4645 10.9931 15.8724 11.822 15.3691C20.1054 10.3481 30.6991 10.9876 38.3358 16.956C38.5768 17.1455 38.7473 17.4297 39.0001 17.7257Z" fill="white"/>
<path d="M23.9736 18.371C27.5774 18.4362 30.8578 19.4783 33.8149 21.5506C34.4145 21.971 34.491 22.7408 33.9207 22.9362C33.6209 23.0368 33.1447 22.9125 32.8625 22.723C30.9754 21.4618 28.9472 20.5796 26.7073 20.2006C22.5157 19.4842 18.6532 20.3131 15.1141 22.6756C14.9907 22.7585 14.879 22.8473 14.7555 22.9184C14.3616 23.1552 13.9736 23.1197 13.7208 22.7348C13.4504 22.3322 13.5268 21.9237 13.9266 21.6395C16.19 20.023 18.6944 18.9809 21.4457 18.596C22.2864 18.4776 23.1329 18.4362 23.9795 18.3651L23.9736 18.371Z" fill="white"/>
<path d="M23.8736 24.8368C25.8489 24.8191 27.6126 25.2809 29.2293 26.2401C29.4644 26.3822 29.6584 26.8026 29.6467 27.0868C29.6408 27.2941 29.2998 27.5605 29.0529 27.6671C28.8942 27.7382 28.6179 27.602 28.4239 27.5013C25.4315 25.9559 22.4392 25.9559 19.4586 27.5132C18.9941 27.7559 18.5767 27.7914 18.2651 27.3178C18.0065 26.927 18.2181 26.4414 18.7472 26.1513C20.3757 25.2691 22.1158 24.8013 23.8795 24.8309L23.8736 24.8368Z" fill="white"/>
<path d="M20.3345 34.4644C20.4814 32.7296 22.1393 31.3618 24.0088 31.3796C25.7901 31.3914 27.4244 32.8065 27.5361 34.4644H20.3345Z" fill="white"/>
</g>
<defs>
<clipPath id="clip0_203_202">
<rect width="30" height="27" fill="white" transform="translate(9 12)"/>
</clipPath>
</defs>
</svg>
