<svg width="50" height="50" viewBox="0 0 50 50" fill="none" xmlns="http://www.w3.org/2000/svg">
<g clip-path="url(#clip0_203_184)">
<path d="M15.2235 39.7791C15.2675 40.0237 15.3487 40.2666 15.3504 40.5111C15.364 41.7736 15.4012 43.0395 15.342 44.3002C15.3013 45.1579 15.6364 45.3715 16.4284 45.368C21.8202 45.3405 27.2119 45.3405 32.6036 45.368C33.4176 45.3732 33.6749 45.1114 33.6715 44.2812C33.6444 37.907 33.6529 31.5328 33.663 25.1585C33.663 24.7073 33.6816 24.2199 33.8424 23.81C34.3247 22.5803 34.3941 21.3161 34.3823 20.0158C34.3535 16.7709 34.3501 13.5261 34.3873 10.283C34.3958 9.47528 34.1115 9.21522 33.3533 9.24966C32.3955 9.29444 31.4325 9.291 30.4747 9.24966C29.8925 9.22383 29.5625 9.44773 29.4475 10.0109C29.2816 10.829 28.7841 11.108 27.9836 11.0977C25.6685 11.0667 23.3534 11.0667 21.04 11.0977C20.2463 11.108 19.7369 10.8462 19.5677 10.023C19.4543 9.4684 19.1412 9.22383 18.5489 9.24966C17.5352 9.29272 16.5164 9.27894 15.501 9.25655C14.907 9.24277 14.6278 9.44945 14.6312 10.1005C14.6498 13.9757 14.6413 17.8526 14.6481 21.7294C14.6481 21.9568 14.6447 22.21 14.7361 22.408C15.4621 23.9753 15.3657 25.6425 15.3606 27.3028C15.3504 30.806 15.3606 34.3091 15.3521 37.8106C15.3521 38.112 15.2675 38.4151 15.2235 38.7165C15.1203 38.7165 15.017 38.7165 14.9138 38.7165C14.8681 38.3824 14.7835 38.0465 14.7835 37.7124C14.775 33.6357 14.7835 29.559 14.77 25.4806C14.77 24.9691 14.775 24.4145 14.5923 23.9564C14.0575 22.6147 13.9881 21.2386 14 19.8229C14.0321 16.6366 14.0084 13.4486 14.0101 10.2624C14.0101 9.01199 14.3858 8.64169 15.6364 8.63997C16.6247 8.63825 17.6131 8.67097 18.5997 8.62964C19.4069 8.59519 19.8825 8.94137 20.0872 9.71813C20.2192 10.2193 20.3918 10.6706 21.1229 10.4432C21.1229 8.73814 21.1195 7.01929 21.1229 5.30043C21.1263 4.29289 21.3886 4.0156 22.3651 4.00871C23.8053 4.00009 25.2437 3.99837 26.6839 4.00871C27.6028 4.0156 27.8787 4.30666 27.8821 5.25737C27.8888 6.97795 27.8837 8.69681 27.8837 10.426C28.449 10.6464 28.7587 10.3984 28.8551 9.92136C29.0684 8.86215 29.7098 8.55902 30.7032 8.62447C31.6864 8.68992 32.6781 8.62447 33.6664 8.64341C34.5363 8.65891 34.9864 9.08604 34.9898 9.9627C35.0033 13.8671 34.9983 17.7716 34.9898 21.6778C34.9898 21.9585 34.9492 22.2616 34.8409 22.5165C34.1927 24.0373 34.2198 25.6373 34.2266 27.2477C34.2452 32.8744 34.235 38.5029 34.2333 44.1297C34.2333 45.7107 33.9524 46.0001 32.4259 46.0001C27.1188 46.0001 21.8117 46.0001 16.5046 46.0001C15.0881 46.0001 14.7818 45.6832 14.7767 44.221C14.7733 43.0153 14.7666 41.8097 14.7835 40.6041C14.7869 40.3286 14.8783 40.0547 14.929 39.7809C15.0272 39.7809 15.1253 39.7809 15.2235 39.7809V39.7791ZM27.2204 4.65285C25.484 4.65285 23.8543 4.64079 22.2263 4.67179C22.0689 4.67524 21.9166 4.94391 21.7609 5.08859C21.9183 5.20226 22.0639 5.34177 22.2382 5.41755C22.3583 5.46922 22.5157 5.43305 22.6562 5.4296C24.3519 5.38482 26.056 5.30732 27.2204 7.26385V4.65285ZM25.8005 7.53081C25.7802 6.85222 25.1303 6.22358 24.4737 6.24425C23.8103 6.26492 23.196 6.92456 23.2129 7.59798C23.2316 8.30929 23.8222 8.86731 24.538 8.85181C25.2454 8.83631 25.8225 8.23351 25.8005 7.53081Z" fill="white"/>
<path d="M16.9346 24.6228C16.9346 21.1506 16.9329 17.6802 16.9346 14.208C16.9346 12.9335 17.1563 12.7096 18.412 12.7096C22.4736 12.7062 26.5351 12.7062 30.5967 12.7096C31.8541 12.7096 32.0724 12.9318 32.0724 14.208C32.0741 21.1799 32.0741 28.1518 32.0724 35.1219C32.0724 36.3964 31.8389 36.6392 30.595 36.641C26.5334 36.6461 22.4719 36.6461 18.4103 36.641C17.1681 36.641 16.9346 36.3964 16.9329 35.1219C16.9295 31.6222 16.9329 28.1225 16.9329 24.621L16.9346 24.6228ZM17.6589 16.2266C17.5963 16.5073 17.5608 16.5882 17.5608 16.6692C17.5574 22.897 17.5641 29.1249 17.5421 35.3527C17.5388 36.0743 17.9331 36.033 18.4103 36.033C22.4736 36.0278 26.5368 36.0106 30.6001 36.0468C31.3532 36.0537 31.4699 35.7626 31.4682 35.0943C31.4496 28.15 31.4412 21.204 31.4767 14.2597C31.4801 13.4209 31.1975 13.2659 30.4562 13.2728C26.8448 13.3055 23.2334 13.2883 19.622 13.2883C18.1756 13.2883 17.4942 14.0249 17.5777 15.498C17.5811 15.5462 17.6301 15.591 17.6961 15.7012H24.0762C25.1762 15.7012 26.2779 15.6634 27.3762 15.7116C28.3899 15.7564 29.4408 15.4929 30.5138 15.9217C30.375 16.1008 30.3259 16.2197 30.2768 16.2197C26.0782 16.2283 21.8812 16.2283 17.6572 16.2283L17.6589 16.2266Z" fill="white"/>
<path d="M24.5059 43.9608C22.3617 43.9608 20.2159 43.9436 18.0717 43.9694C17.2679 43.9797 16.9362 43.6043 16.9362 42.8344C16.9362 41.6288 16.9328 40.4232 16.9379 39.2176C16.9412 38.4873 17.2865 38.105 18.0277 38.105C22.3465 38.1084 26.6636 38.1084 30.9824 38.105C31.7237 38.105 32.0706 38.4856 32.074 39.2159C32.079 40.4215 32.0757 41.6271 32.0757 42.8327C32.0757 43.6008 31.7457 43.978 30.9401 43.9677C28.7959 43.9401 26.6501 43.9591 24.5059 43.9591V43.9608ZM31.4546 38.8266H17.5556C17.5556 40.158 17.5809 41.4187 17.5437 42.676C17.5268 43.2633 17.7586 43.4131 18.2883 43.4045C19.698 43.3804 21.1094 43.3976 22.5191 43.3976C25.2268 43.3976 27.9346 43.3993 30.6423 43.3942C31.0213 43.3942 31.4681 43.4975 31.4597 42.843C31.4427 41.5272 31.4546 40.2114 31.4546 38.8249V38.8266Z" fill="white"/>
<path d="M18.505 28.2621H20.111C20.282 26.7103 20.4495 25.2119 20.6103 23.7117C20.6898 22.9711 20.7271 22.2237 20.8506 21.4917C20.8878 21.2712 21.1501 21.0921 21.3109 20.8923C21.4243 21.0973 21.6155 21.2919 21.6392 21.5072C21.822 23.2174 21.9726 24.9294 22.1368 26.6414C22.1858 27.1512 22.2535 27.6592 22.3094 28.1432C22.9186 28.4188 23.1928 28.1725 23.3248 27.63C23.3857 27.382 23.45 27.1202 23.5803 26.9066C23.8189 26.5122 24.1049 26.4743 24.3198 26.9376C24.4265 27.1684 24.4891 27.4233 24.5517 27.6713C24.6549 28.0778 24.8715 28.4016 25.3048 28.2293C25.5383 28.1363 25.7888 27.828 25.8463 27.5749C26.0477 26.6827 26.1425 25.7682 26.3337 24.8743C26.3879 24.6228 26.6299 24.411 26.7856 24.1819C26.9226 24.4127 27.1409 24.628 27.1849 24.876C27.3389 25.7492 27.4811 26.6293 27.5369 27.5129C27.5759 28.1243 27.8179 28.2965 28.3797 28.2638C29.0262 28.2259 29.6777 28.2534 30.3259 28.2776C30.4325 28.281 30.534 28.4067 30.8251 28.6013C30.4562 28.7064 30.2734 28.7925 30.0856 28.8063C29.72 28.8304 29.3528 28.8201 28.9856 28.8132C27.0462 28.7787 27.1613 29.1714 26.8719 26.8928C26.8583 26.7878 26.8296 26.6862 26.7889 26.4984C26.1679 27.2786 26.9802 28.9682 25.166 28.8425C24.4688 28.7942 24.1438 28.517 24.0051 27.9813C23.7089 28.2552 23.4534 28.6892 23.1132 28.7736C22.0132 29.0474 21.712 28.7409 21.6257 27.5731C21.5411 26.4054 21.4108 25.2411 21.1637 24.0769C21.0317 25.36 20.942 26.6483 20.7406 27.921C20.6898 28.2448 20.3107 28.7357 20.0467 28.7598C19.5154 28.8097 18.8333 29.0853 18.3967 28.5497C18.434 28.455 18.4695 28.3585 18.5067 28.2638L18.505 28.2621Z" fill="white"/>
<path d="M24.4568 35.0273C24.3722 35.0273 24.2876 35.0273 24.2029 35.0273C22.184 35.0273 21.9826 34.7965 22.338 32.7469C22.3702 32.5592 22.6782 32.2888 22.8677 32.2819C23.9626 32.2371 25.0609 32.2595 26.1576 32.2613C26.1863 32.2613 26.2185 32.2544 26.2405 32.2664C27.1831 32.7986 26.5062 33.6873 26.6822 34.3917C26.782 34.7862 26.6094 35.0462 26.1423 35.0307C25.5805 35.0101 25.0169 35.0256 24.4551 35.0273H24.4568Z" fill="white"/>
<path d="M21.5815 35.0238C20.6762 35.0238 19.8131 35.0204 18.95 35.0238C18.3086 35.0273 18.3746 34.5244 18.4558 34.1748C18.6031 33.5358 17.938 32.6677 18.9381 32.2664C19.06 32.2182 19.2157 32.2578 19.3561 32.2561C21.0519 32.2423 21.7937 33.1638 21.5815 35.0204V35.0238Z" fill="white"/>
<path d="M27.3558 35.0255C27.3558 34.1816 27.3288 33.4461 27.3778 32.7142C27.388 32.554 27.6537 32.3353 27.8415 32.2819C28.1022 32.2061 28.3983 32.2595 28.6792 32.2595C30.7117 32.2595 30.8996 32.473 30.5526 34.545C30.5222 34.7293 30.2176 34.991 30.0297 35.0031C29.192 35.053 28.3509 35.0255 27.3575 35.0255H27.3558Z" fill="white"/>
</g>
<defs>
<clipPath id="clip0_203_184">
<rect width="21" height="42" fill="white" transform="translate(14 4)"/>
</clipPath>
</defs>
</svg>
