<svg width="50" height="50" viewBox="0 0 50 50" fill="none" xmlns="http://www.w3.org/2000/svg">
<path d="M36.1887 28.9857C37.0656 29.496 37.8225 29.9611 38.6063 30.3839C39.1559 30.6798 39.3601 31.0391 39.4412 31.7126C39.6124 33.15 39.0148 33.8415 37.8074 34.5119C33.5758 36.8643 29.4133 39.3466 25.2357 41.7956C24.647 42.1399 24.1455 42.1489 23.5508 41.7956C21.0701 40.325 18.5804 38.8725 16.0697 37.4622C15.436 37.1059 15.1717 36.7043 15.2137 35.9644C15.2678 34.986 15.0095 33.92 16.3159 33.6784C16.0877 33.1379 15.7273 32.6759 15.7573 32.241C15.7874 31.8092 16.2619 31.4227 16.4361 30.9757C16.5382 30.716 16.4751 30.3657 16.403 30.0789C16.373 29.9611 16.1357 29.8614 15.9766 29.8131C14.1055 29.2243 13.8923 27.7627 14.1626 26.1501C14.2407 25.6911 14.6611 25.1778 15.0696 24.9181C15.6042 24.5768 15.7633 24.2265 15.6612 23.6407C15.5741 23.1304 15.5291 22.6109 15.505 22.0946C15.43 20.3069 15.3098 18.5191 15.3279 16.7345C15.3429 15.3272 16.8836 13.7509 18.4903 14.4787C18.7186 14.5814 19.0159 14.7293 19.091 14.9286C19.3853 15.6957 19.8148 15.5024 20.3073 15.1883C22.2354 13.9563 24.1305 12.6578 26.1096 11.5102C28.3651 10.2057 30.6776 8.99476 33.0142 7.84725C33.4226 7.64794 34.1344 7.83517 34.6059 8.05561C35.567 8.50858 36.471 9.08838 37.381 9.64704C37.9186 9.97619 38.2609 10.4322 38.1858 11.1358C38.1588 11.3985 38.2699 11.6975 38.3811 11.9511C38.7234 12.7212 38.9817 13.4489 38.297 14.2009C38.1408 14.373 38.1738 14.7474 38.1738 15.0283C38.1678 18.7668 38.1258 22.5083 38.1949 26.2468C38.2159 27.358 38.0117 28.1613 36.8944 28.5509C36.6842 28.6233 36.504 28.7864 36.1887 28.9827V28.9857ZM37.6933 10.9908C37.5221 11.0271 37.429 11.0241 37.3629 11.0603C32.825 13.6935 28.287 16.3207 23.7701 18.9902C23.5118 19.1442 23.3256 19.6425 23.3256 19.9807C23.2986 24.9966 23.3076 30.0094 23.3076 35.0253C23.3076 35.2729 23.3076 35.5205 23.3076 35.9101C23.8572 35.6081 24.2836 35.3846 24.6981 35.143C28.7826 32.7665 32.858 30.3748 36.9605 28.0284C37.5191 27.7083 37.7083 27.3671 37.7053 26.736C37.6813 21.7805 37.6933 16.822 37.6933 11.8666C37.6933 11.5857 37.6933 11.3079 37.6933 10.9908ZM26.398 38.4557C29.8577 36.4415 33.2274 34.4787 36.5941 32.5188C35.4198 32.4132 34.3807 32.2984 34.0383 31.0482C32.4796 31.6793 30.9419 32.232 29.4703 32.9205C28.305 33.4671 27.1518 34.0921 26.1157 34.8501C25.479 35.3121 25.0705 36.0882 24.608 36.665C26.0976 37.0062 26.3829 37.2599 26.398 38.4557ZM38.9277 31.7518C38.6724 31.8636 38.4892 31.9239 38.324 32.0176C34.1404 34.4455 29.9569 36.8764 25.7763 39.3133C24.6771 39.9535 24.647 40.0502 24.9714 41.397C25.0765 41.3457 25.1786 41.3064 25.2747 41.252C29.6085 38.7366 33.9272 36.1969 38.282 33.7237C39.1709 33.2194 38.9907 32.5672 38.9277 31.7518ZM37.1737 10.3899C36.507 9.63798 35.9454 9.79501 35.1495 10.1453C33.4887 10.8731 32.4105 12.7212 30.3563 12.6547C30.3323 12.6547 30.3052 12.6819 30.2812 12.694C29.2601 13.2889 28.236 13.8747 27.2239 14.4817C27.0407 14.5934 26.7764 14.7776 26.7674 14.9377C26.7253 15.6926 26.1367 15.6957 25.6441 15.9252C24.4158 16.4959 23.2235 17.1451 21.9231 17.8125C23.0553 18.6218 23.0523 18.6158 23.9983 18.0601C25.539 17.1572 27.0827 16.2634 28.6264 15.3665C31.4615 13.7147 34.2966 12.0629 37.1737 10.3899ZM35.4769 9.32996C34.8072 8.92833 34.2546 8.56898 33.6689 8.267C33.5037 8.18244 33.2124 8.19754 33.0412 8.28814C31.1672 9.27862 29.2781 10.254 27.4431 11.314C25.8093 12.2591 24.2416 13.3221 22.6348 14.3126C21.7339 14.8682 20.8088 15.3846 19.9739 15.8708C19.7757 16.9911 20.6467 17.1935 21.2383 17.423C21.5507 17.5438 22.0792 17.1029 22.3826 16.97C22.0432 16.5684 21.6888 16.2966 21.5777 15.9463C21.5266 15.7862 21.908 15.3816 22.1723 15.2427C23.3586 14.6176 24.578 14.062 25.7763 13.458C26.2568 13.2164 26.6532 12.8722 27.2659 13.2557C27.4761 13.3885 27.9447 13.1107 28.3831 12.996C28.1128 12.697 27.9717 12.537 27.8245 12.3739C27.9296 12.2712 27.9837 12.2048 28.0528 12.1565C29.3202 11.2868 30.5875 10.4141 31.8669 9.55946C32.0261 9.45377 32.2604 9.34506 32.4286 9.3813C33.0532 9.51719 33.6659 9.71347 34.2816 9.88862C34.2726 9.95505 34.2606 10.0215 34.2515 10.0879C34.636 9.84936 35.0174 9.61382 35.4769 9.32996ZM18.7126 36.8009C17.6524 36.203 16.7154 35.6745 15.7423 35.1249C15.5171 36.1124 15.6192 36.7828 16.6133 37.278C18.181 38.0601 19.6616 39.0234 21.1813 39.9082C22.0642 40.4216 22.9502 40.9259 23.8602 41.4483C24.1485 40.3793 23.9202 39.7029 22.9532 39.256C22.0432 38.8332 21.2023 38.2564 20.3313 37.7521C19.5985 37.3263 19.2652 36.6529 19.151 35.8406C19.115 35.5869 19.0729 35.3363 19.0339 35.0826C18.9618 35.0887 18.8928 35.0917 18.8207 35.0977C18.7876 35.6141 18.7546 36.1335 18.7126 36.8039V36.8009ZM15.6162 17.3988C15.9165 18.4738 15.1116 19.7331 16.391 20.3884C17.298 20.8534 18.3522 20.8987 19.16 20.2132C20.034 19.4734 19.4454 18.4104 19.5925 17.4441C17.8806 18.0601 17.3821 18.0541 15.6162 17.3988ZM22.6108 26.4461C22.5387 26.4038 22.4697 26.3645 22.3976 26.3223C21.2804 27.4094 19.0039 27.3007 19.145 29.6833C19.145 29.7286 19.1751 29.7739 19.2021 29.8494C20.07 29.3632 20.932 28.88 21.9381 28.3153V32.7997C22.0252 32.8329 22.1153 32.8691 22.2024 32.9024C22.3375 32.6547 22.5838 32.4101 22.5898 32.1595C22.6228 30.257 22.6078 28.3515 22.6078 26.4461H22.6108ZM19.4033 20.6451C18.223 21.3457 17.0728 21.2671 15.9255 20.7085C15.7844 23.0186 16.1147 23.6256 17.6224 23.529C19.4363 23.4112 19.5895 23.0669 19.4033 20.6451ZM19.6736 24.4923C19.4874 26.0142 19.2201 26.3947 18.214 26.5699C16.9316 26.7933 16.1147 26.3857 15.5321 25.1838C15.3158 25.374 15.1086 25.5492 14.9494 25.6881C15.8414 27.2735 17.5623 26.6212 18.7516 27.3067C19.8598 26.7269 20.968 26.1441 22.2114 25.4918C21.2744 25.1204 20.5055 24.8184 19.6766 24.4893L19.6736 24.4923ZM21.4816 21.2792V23.4112C21.5567 23.3689 21.6317 23.3266 21.7068 23.2844C21.9321 23.5743 22.1573 23.8611 22.3826 24.151C22.0912 24.2477 21.8029 24.3473 21.4425 24.4681C21.7819 24.6704 22.1303 24.8788 22.6288 25.1747C22.6288 23.4172 22.5718 21.8318 22.6529 20.2555C22.6979 19.3617 22.2714 19.0325 21.4906 18.8V20.183C21.5657 20.1377 21.6408 20.0925 21.7158 20.0472C21.9381 20.328 22.1633 20.6088 22.3856 20.8897C22.1093 21.0074 21.836 21.1282 21.4846 21.2792H21.4816ZM20.2502 17.8306C20.1872 17.891 20.1271 17.9514 20.064 18.0118C19.989 18.8392 19.8778 19.6667 19.8508 20.4971C19.8328 21.0256 19.7817 21.6507 20.025 22.0704C20.6226 23.1092 20.6797 23.1062 19.5775 23.6739C20.022 23.9397 20.4094 24.1692 20.929 24.4772C20.929 22.4358 20.959 20.5877 20.8989 18.7456C20.8899 18.4346 20.4785 18.1356 20.2532 17.8276L20.2502 17.8306ZM16.0336 24.4107C16.2108 24.912 16.2469 25.6036 16.5982 25.8663C17.2439 26.3494 18.1509 26.3464 18.7786 25.827C19.106 25.5552 19.088 24.8637 19.2141 24.4107H16.0336ZM19.4634 31.9662C18.9859 32.5098 17.8596 32.4584 18.184 33.307C18.4092 33.8959 19.2081 34.3398 19.8448 34.6538C20.067 34.7625 20.5746 34.2915 20.95 34.0831C20.932 34.0046 20.914 33.9291 20.8929 33.8506C19.9139 33.6603 19.5174 33.005 19.4634 31.9692V31.9662ZM36.1196 31.6522C36.1196 31.6522 36.1196 31.634 36.1196 31.625C36.3749 31.6431 36.6452 31.7216 36.8854 31.6642C37.1557 31.6008 37.396 31.4166 37.6513 31.2868C37.4831 31.021 37.3629 30.5922 37.1377 30.5258C36.6392 30.3778 36.0625 30.2993 35.561 30.408C35.1916 30.4895 34.6179 30.9153 34.624 31.175C34.642 31.7669 35.2156 31.7277 35.6901 31.6552C35.8283 31.634 35.9754 31.6522 36.1196 31.6522ZM24.3888 37.0908C24.0284 37.1844 23.656 37.2025 23.3827 37.3807C23.1454 37.5347 23.0223 37.8699 22.8511 38.1236C23.1604 38.2443 23.4607 38.4225 23.7791 38.4708C24.1966 38.5373 24.638 38.5493 25.0585 38.492C25.3498 38.4497 25.6201 38.2504 25.8994 38.1236C25.7523 37.8789 25.6592 37.5407 25.4399 37.4079C25.1366 37.2237 24.7431 37.1904 24.3888 37.0938V37.0908ZM15.1927 27.2252C14.9104 28.7653 15.1056 29.0219 17.1298 29.8131C16.9346 29.4356 16.5922 29.0703 16.5862 28.6988C16.5682 27.7144 15.8775 27.5181 15.1927 27.2252ZM22.5838 33.2677C21.7729 33.455 21.1813 33.8053 21.4696 34.6599C21.6107 35.0796 22.0522 35.3997 22.3555 35.7651C22.4306 35.7107 22.5087 35.6534 22.5838 35.599V33.2708V33.2677ZM17.7305 14.5391C17.247 14.8441 16.8896 15.0675 16.5322 15.291C16.8926 15.5084 17.247 15.8889 17.6134 15.898C17.9948 15.9101 18.3852 15.5628 18.7726 15.3756C18.4543 15.1189 18.1359 14.8622 17.7305 14.5391ZM34.3897 30.2329C35.1675 30.0819 35.8943 29.94 36.6061 29.798C35.6451 29.1337 35.2096 29.2092 34.3897 30.2329ZM18.241 35.1491C18.2831 35.0373 18.3221 34.9256 18.3642 34.8139C17.9858 34.5663 17.6073 34.3216 16.9737 33.9049C17.0427 34.4002 16.9977 34.8078 17.1328 34.8803C17.4572 35.0524 17.8656 35.0706 18.241 35.1491ZM19.9379 30.6979L19.9529 30.4745C19.7427 30.4352 19.4634 30.2902 19.3342 30.3748C19.0579 30.556 18.8567 30.8549 18.6255 31.1056C18.7035 31.1811 18.7816 31.2566 18.8597 31.329C19.2201 31.1207 19.5805 30.9093 19.9409 30.7009L19.9379 30.6979Z" fill="white"/>
<path d="M26.3979 38.4557C26.3829 37.2569 26.0945 37.0062 24.6079 36.665C25.0704 36.0882 25.4789 35.3121 26.1156 34.8501C27.1547 34.0922 28.305 33.4671 29.4702 32.9205C30.9448 32.232 32.4795 31.6794 34.0382 31.0482C34.3806 32.2954 35.4197 32.4132 36.594 32.5189C33.2243 34.4817 29.8577 36.4415 26.3979 38.4557Z" fill="#202124"/>
<path d="M38.9276 31.7518C38.9907 32.5672 39.1709 33.2194 38.2819 33.7237C33.9271 36.1969 29.6084 38.7366 25.2747 41.2521C25.1816 41.3064 25.0795 41.3457 24.9714 41.397C24.647 40.0502 24.677 39.9536 25.7762 39.3134C29.9568 36.8764 34.1404 34.4485 38.324 32.0176C38.4861 31.924 38.6723 31.8636 38.9276 31.7518Z" fill="#202124"/>
<path d="M18.7124 36.8009C18.7545 36.1305 18.7875 35.6111 18.8205 35.0947C18.8926 35.0887 18.9617 35.0856 19.0338 35.0796C19.0728 35.3333 19.1148 35.5839 19.1509 35.8376C19.262 36.6499 19.5954 37.3233 20.3312 37.7491C21.2021 38.2564 22.0431 38.8332 22.953 39.2529C23.9201 39.6999 24.1484 40.3763 23.86 41.4453C22.95 40.9229 22.0641 40.4186 21.1811 39.9052C19.6614 39.0234 18.1838 38.0571 16.6131 37.275C15.619 36.7797 15.5169 36.1124 15.7422 35.1219C16.7152 35.6715 17.6492 36.1999 18.7124 36.7978V36.8009Z" fill="#202124"/>
<path d="M36.1165 31.6491C35.9724 31.6491 35.8282 31.631 35.6871 31.6521C35.2125 31.7246 34.6359 31.7639 34.6209 31.172C34.6149 30.9123 35.1885 30.4865 35.5579 30.405C36.0565 30.2962 36.6331 30.3748 37.1346 30.5227C37.3599 30.5892 37.48 31.018 37.6482 31.2837C37.3959 31.4136 37.1527 31.5978 36.8824 31.6612C36.6421 31.7186 36.3718 31.64 36.1165 31.6219C36.1165 31.631 36.1165 31.64 36.1165 31.6491Z" fill="white"/>
<path d="M24.3856 37.0877C24.74 37.1844 25.1334 37.2176 25.4367 37.4018C25.653 37.5347 25.7461 37.8729 25.8962 38.1175C25.6169 38.2473 25.3466 38.4466 25.0553 38.4859C24.6379 38.5433 24.1964 38.5312 23.7759 38.4648C23.4576 38.4164 23.1572 38.2383 22.8479 38.1175C23.0221 37.8638 23.1422 37.5286 23.3795 37.3746C23.6498 37.1964 24.0252 37.1813 24.3856 37.0847V37.0877Z" fill="white"/>
<path d="M22.5838 33.2677V35.5959C22.5087 35.6503 22.4306 35.7076 22.3555 35.762C22.0492 35.3966 21.6107 35.0765 21.4696 34.6568C21.1813 33.8052 21.7729 33.4549 22.5838 33.2646V33.2677Z" fill="white"/>
<path d="M19.6614 36.0882C20.9408 35.1551 21.2801 35.2457 21.5024 36.5291C20.235 37.432 20.1119 37.4048 19.6614 36.0882Z" fill="white"/>
<path d="M17.7303 14.5391C18.1357 14.8652 18.4541 15.1219 18.7724 15.3755C18.385 15.5658 17.9946 15.91 17.6132 15.898C17.2468 15.8889 16.8924 15.5084 16.532 15.291C16.8894 15.0675 17.2468 14.841 17.7303 14.5391Z" fill="white"/>
<path d="M22.2894 38.4074C21.8059 38.1115 21.3494 37.8336 20.8929 37.5528C20.8929 37.4773 20.8929 37.3988 20.8899 37.3233C21.4665 37.1632 22.0432 37.0032 22.773 36.7979C22.5627 37.4984 22.4396 37.9152 22.2924 38.4074H22.2894Z" fill="white"/>
<path d="M34.3865 30.2298C35.2064 29.2091 35.6418 29.1306 36.6029 29.7949C35.8911 29.9338 35.1643 30.0758 34.3865 30.2298Z" fill="white"/>
<path d="M18.2378 35.146C17.8624 35.0675 17.454 35.0494 17.1296 34.8772C16.9975 34.8078 17.0425 34.3971 16.9705 33.9019C17.6042 34.3156 17.9826 34.5632 18.361 34.8108C18.3189 34.9225 18.2799 35.0343 18.2378 35.146Z" fill="white"/>
<path d="M31.2813 22.8887C31.2722 23.7191 30.7286 24.4197 30.2782 24.314C30.0589 24.2627 29.7616 23.9214 29.7556 23.701C29.7376 23.0729 30.0679 22.5686 30.7136 22.475C30.9148 22.4448 31.1671 22.7981 31.2813 22.8857V22.8887Z" fill="white"/>
<path d="M31.3233 29.7678C31.1911 30.5499 30.9839 31.0965 30.2902 31.1236C30.11 31.1297 29.7916 30.7734 29.7496 30.5438C29.6535 30.0003 30.3412 29.1789 30.7767 29.2876C31.0109 29.345 31.1851 29.6379 31.3233 29.7678Z" fill="white"/>
<path d="M25.7671 26.588C25.1815 27.0953 24.788 27.4365 24.3946 27.7778C24.2114 27.5573 23.872 27.3308 23.881 27.1164C23.9051 26.5246 24.1633 25.9599 24.8481 25.9146C25.0643 25.8995 25.3016 26.2316 25.7671 26.588Z" fill="white"/>
<path d="M37.4618 19.8871C36.9002 20.3008 36.5038 20.5967 36.1073 20.8896C35.9422 20.636 35.6208 20.3612 35.6478 20.1317C35.7169 19.57 36.0263 19.0476 36.681 19.0747C36.8912 19.0838 37.0864 19.4794 37.4618 19.8871Z" fill="white"/>
<path d="M25.4097 19.4613C25.4187 20.2887 24.8901 20.9621 24.4006 20.8655C24.1843 20.8232 23.905 20.491 23.875 20.2615C23.7969 19.7149 24.4306 18.9811 24.8781 19.0687C25.1153 19.114 25.3076 19.3858 25.4097 19.4643V19.4613Z" fill="white"/>
<path d="M31.6086 16.2996C31.0711 16.8099 30.6926 17.1723 30.3112 17.5346C30.116 17.2991 29.7977 17.0847 29.7526 16.825C29.6625 16.2845 30.2902 15.5748 30.7497 15.6563C30.981 15.6986 31.1732 15.9613 31.6056 16.2996H31.6086Z" fill="white"/>
<path d="M25.7673 33.4126C25.1846 33.92 24.7912 34.2642 24.4008 34.6055C24.2176 34.388 23.8752 34.1676 23.8782 33.9592C23.8932 33.3583 24.1635 32.8026 24.8422 32.7392C25.0525 32.7211 25.2957 33.0563 25.7673 33.4157V33.4126Z" fill="white"/>
<path d="M37.4408 13.0624C36.9093 13.4731 36.5188 13.7751 36.1254 14.0771C35.9542 13.8294 35.6509 13.5879 35.6389 13.3312C35.6088 12.7695 36.3146 12.0478 36.69 12.2078C36.9393 12.3135 37.0895 12.6487 37.4378 13.0624H37.4408Z" fill="white"/>
<path d="M37.516 26.6242C36.9273 27.1074 36.5279 27.4365 36.1255 27.7657C35.9513 27.5422 35.5849 27.198 35.6359 27.1134C35.9032 26.6665 36.2696 26.2769 36.645 25.9115C36.6691 25.8904 37.0655 26.2528 37.516 26.6272V26.6242Z" fill="white"/>
</svg>
