<svg width="50" height="50" viewBox="0 0 50 50" fill="none" xmlns="http://www.w3.org/2000/svg">
<g clip-path="url(#clip0_203_207)">
<path d="M24.4831 14C29.4272 14 34.3714 14 39.3155 14C41.2648 14 42 14.7319 42 16.6838C42 24.6268 42 32.5765 42 40.5195C42 42.1528 41.2108 42.9864 39.5853 42.9864C29.5352 42.9932 19.4918 42.9932 9.4417 42.9864C7.78242 42.9932 7 42.1664 7 40.4856C7 32.5155 7 24.5455 7 16.5754C7 14.7726 7.76893 14 9.58335 14C14.5477 14 19.5188 14 24.4831 14ZM12.8884 14.9624C11.7148 14.9624 10.6019 14.9624 9.49566 14.9624C8.32203 14.9692 7.9578 15.3419 7.9578 16.5347C7.9578 24.5048 7.9578 32.4681 7.9578 40.4382C7.9578 41.6649 8.31528 42.0376 9.54288 42.0376C19.5188 42.0376 29.4947 42.0376 39.4706 42.0376C40.6915 42.0376 41.0489 41.6649 41.0489 40.4382C41.0489 32.4681 41.0489 24.5048 41.0489 16.5347C41.0489 16.372 41.0624 16.2094 41.0422 16.0535C40.9613 15.4707 40.651 15.0301 40.0507 15.0098C38.7624 14.9692 37.4741 14.9963 36.1655 14.9963C36.1453 15.1386 36.1318 15.2267 36.1251 15.3148C36.0509 16.9549 35.2752 17.714 33.6227 17.714C27.5386 17.714 21.4614 17.714 15.3773 17.714C15.1952 17.714 15.0131 17.714 14.831 17.6868C13.7248 17.5649 12.9694 16.7719 12.8952 15.6537C12.8817 15.4571 12.8952 15.2538 12.8952 14.9692L12.8884 14.9624ZM13.8732 15.003C13.8125 16.2365 14.1767 16.738 15.175 16.738C21.3872 16.7516 27.5993 16.7516 33.8115 16.738C34.8907 16.738 35.3359 16.0738 35.0526 15.003H13.8664H13.8732Z" fill="white"/>
<path d="M24.5034 33.7896C19.7414 33.7896 14.9794 33.7896 10.2174 33.7896C9.21912 33.7896 9.19214 33.7558 9.19214 32.7459C9.19214 28.4627 9.19214 24.1795 9.19214 19.8962C9.19214 19.0219 9.25959 18.9474 10.1162 18.9474C19.7077 18.9474 29.2991 18.9474 38.8905 18.9474C39.7539 18.9474 39.8146 19.0152 39.8146 19.8894C39.8146 24.1727 39.8146 28.4559 39.8146 32.7392C39.8146 33.7558 39.7876 33.7896 38.7894 33.7896C34.0274 33.7896 29.2654 33.7896 24.5034 33.7896ZM38.8366 19.9708H10.1837V32.773H38.8366V19.9708Z" fill="white"/>
<path d="M24.4628 40.7974C23.1678 40.7974 21.866 40.7838 20.5709 40.7974C19.9909 40.8042 19.748 40.567 19.7548 39.9841C19.775 38.588 19.7683 37.1919 19.7548 35.7957C19.7548 35.24 19.9841 35.0164 20.5372 35.0164C23.1813 35.0299 25.8186 35.0299 28.4626 35.0164C29.0157 35.0164 29.2518 35.24 29.245 35.7957C29.2316 37.1919 29.2316 38.588 29.245 39.9841C29.2518 40.5737 29.009 40.8109 28.4289 40.7974C27.1069 40.777 25.7848 40.7974 24.4628 40.7974ZM28.2805 39.835C28.2805 38.71 28.2535 37.6663 28.294 36.6226C28.3142 36.0804 28.0984 35.972 27.6127 35.9787C25.8186 35.9991 24.0176 35.9855 22.2235 35.9855C21.7513 35.9855 21.2792 35.9855 20.7126 35.9855C20.7126 37.1105 20.7396 38.1542 20.6991 39.1979C20.6788 39.7401 20.8947 39.8486 21.3803 39.8418C23.1745 39.8215 24.9754 39.835 26.7696 39.835C27.2418 39.835 27.7139 39.835 28.2805 39.835Z" fill="white"/>
<path d="M13.8124 40.7974C12.5376 40.7974 11.2628 40.7838 9.98798 40.7974C9.42139 40.8042 9.16508 40.6076 9.17857 39.9909C9.2123 38.5948 9.20555 37.1986 9.17857 35.8025C9.16508 35.24 9.38092 35.0164 9.93402 35.0164C12.5511 35.0299 15.1749 35.0231 17.792 35.0164C18.3046 35.0164 18.5339 35.2129 18.5272 35.7483C18.507 37.1919 18.507 38.6354 18.5272 40.079C18.5339 40.6279 18.2709 40.7974 17.7717 40.7974C16.4497 40.7838 15.1277 40.7974 13.8057 40.7974H13.8124ZM10.1633 39.7876H17.5087V36.0465H10.1633V39.7876Z" fill="white"/>
<path d="M35.093 40.7973C33.8182 40.7973 32.5433 40.7838 31.2685 40.8041C30.6885 40.8109 30.4524 40.5872 30.4659 39.9908C30.4929 38.5947 30.4929 37.1986 30.4659 35.8025C30.4591 35.2467 30.6682 35.0163 31.2281 35.0231C33.8451 35.0366 36.469 35.0299 39.086 35.0231C39.5987 35.0231 39.828 35.2196 39.8212 35.7618C39.801 37.1783 39.7943 38.6015 39.8212 40.018C39.8347 40.5872 39.6054 40.8041 39.0591 40.7973C37.737 40.7838 36.415 40.7973 35.093 40.7973ZM31.4641 39.7807H38.8095V36.0397H31.4641V39.7807Z" fill="white"/>
<path d="M19.2962 26.3008C19.2962 25.3859 19.3165 24.4709 19.2895 23.556C19.276 23.0274 19.4649 22.797 19.9977 22.8037C21.0027 22.8173 22.001 22.8173 23.006 22.8037C23.4916 22.8037 23.7007 22.9935 23.694 23.5018C23.6738 25.352 23.6738 27.209 23.694 29.0659C23.694 29.6217 23.4579 29.7843 22.952 29.7708C21.974 29.7505 20.996 29.7505 20.018 29.7708C19.4986 29.7843 19.276 29.5878 19.2895 29.0456C19.3165 28.1307 19.2962 27.2157 19.2962 26.3008ZM20.2945 28.761H22.6822V23.8068H20.2945V28.761Z" fill="white"/>
<path d="M29.1304 26.2669C30.5131 26.66 30.4052 27.6291 30.3782 28.5847C30.3513 29.7572 30.3715 29.7572 29.2046 29.764C28.3615 29.764 27.5183 29.7436 26.682 29.764C26.1491 29.7775 25.9265 29.5606 25.9602 29.032C25.9737 28.8287 25.9063 28.5983 25.9805 28.4221C26.0749 28.1916 26.2705 28.0019 26.4189 27.7918C26.5808 27.968 26.7696 28.1374 26.9045 28.3339C26.972 28.4356 26.945 28.5915 26.9652 28.7609H29.3328C29.5216 27.6291 29.5149 27.6427 28.5773 27.0734C28.2468 26.8701 27.977 26.5651 27.6735 26.3075C27.977 26.0297 28.2401 25.6434 28.5975 25.501C29.3935 25.1757 29.5486 24.6336 29.353 23.8203H27.0192C27.0192 23.8203 26.9585 23.8813 26.945 23.9152C26.8573 24.2608 26.9787 24.7962 26.3987 24.7691C25.7984 24.742 25.967 24.2201 25.9602 23.8677C25.94 22.824 25.9737 22.7969 27.0192 22.7969C27.8826 22.7969 28.7459 22.8105 29.6093 22.7969C30.1691 22.7834 30.4052 23.0341 30.358 23.5831C30.3445 23.7186 30.358 23.8542 30.358 23.9965C30.3917 24.9453 30.5469 25.9483 29.1169 26.2601L29.1304 26.2669Z" fill="white"/>
<path d="M15.0468 28.8015C16.0653 28.8015 16.8815 28.8015 17.7044 28.8015C17.9067 28.8015 18.1428 28.788 18.2979 28.8829C18.4463 28.971 18.6014 29.2014 18.588 29.3505C18.5745 29.4928 18.3451 29.73 18.2102 29.73C17.0299 29.7639 15.8427 29.7571 14.6556 29.7436C14.5409 29.7436 14.3858 29.6555 14.3116 29.5606C14.0418 29.2014 14.2644 27.7646 14.6354 27.4732C15.3503 26.9107 16.0451 26.3007 16.8073 25.8128C17.5627 25.3316 17.8527 24.742 17.6032 23.8202H15.1817C15.1817 24.1659 15.2424 24.5386 15.1615 24.8707C15.1008 25.0944 14.8377 25.2706 14.6623 25.4671C14.5207 25.2774 14.2711 25.1012 14.2509 24.8911C14.1902 24.3963 14.2374 23.888 14.2307 23.3797C14.2239 22.9663 14.4398 22.7969 14.8175 22.7969C15.8899 22.7969 16.9557 22.7969 18.0281 22.7969C18.4531 22.7969 18.6554 23.0205 18.6217 23.4475C18.6217 23.4678 18.6217 23.4949 18.6217 23.5153C18.6622 24.8662 18.1518 25.9551 17.0906 26.7819C16.5644 27.1886 16.0248 27.5681 15.5257 27.9951C15.3436 28.1509 15.2559 28.4288 15.0536 28.788L15.0468 28.8015Z" fill="white"/>
<path d="M34.7693 24.5184C34.7693 25.4808 34.061 26.2059 33.0965 26.2127C32.1792 26.2195 31.39 25.4604 31.3698 24.5455C31.3495 23.6035 32.1454 22.8105 33.1032 22.8173C34.061 22.8241 34.7693 23.5425 34.7693 24.5116V24.5184ZM33.9329 24.6539C33.7777 24.0169 33.5147 23.7797 33.0628 23.7932C32.6041 23.8068 32.3343 24.105 32.3545 24.5455C32.368 24.986 32.6716 25.3181 33.11 25.2232C33.4135 25.1622 33.6631 24.8573 33.9329 24.6607V24.6539Z" fill="white"/>
<path d="M24.1121 29.2828C24.4426 28.9711 24.6247 28.8016 24.8068 28.6322C24.9754 28.8491 25.2587 29.0592 25.279 29.2896C25.2924 29.4794 25.0024 29.703 24.8473 29.9063C24.6449 29.7369 24.4426 29.5675 24.1121 29.2896V29.2828Z" fill="white"/>
<path d="M24.4088 37.9983C24.1728 38.2898 24.0176 38.5744 23.7816 38.7303C23.6264 38.8387 23.2622 38.8523 23.1475 38.7506C23.0329 38.6354 23.0059 38.2491 23.1138 38.1136C23.4173 37.7205 23.795 37.3816 24.1728 37.0563C24.5235 36.7445 24.827 36.9817 25.0429 37.2596C25.3801 37.7001 26.1356 37.8899 25.94 38.6354C25.913 38.7371 25.4273 38.8252 25.2317 38.7438C24.9619 38.6286 24.7663 38.3372 24.4088 38.0051V37.9983Z" fill="white"/>
<path d="M13.8799 38.3914C13.4685 38.3914 13.0503 38.4456 12.6523 38.3711C12.4365 38.3304 12.2611 38.0864 12.0723 37.9305C12.2544 37.7679 12.423 37.4697 12.6119 37.4561C13.4483 37.4019 14.2981 37.4087 15.1345 37.4561C15.3031 37.4629 15.465 37.7408 15.6269 37.8899C15.4515 38.0525 15.2964 38.3236 15.1008 38.3643C14.7028 38.4388 14.2846 38.3846 13.8732 38.3846L13.8799 38.3914Z" fill="white"/>
<path d="M35.1539 37.7476C35.4237 37.4968 35.626 37.2257 35.8891 37.0766C36.0577 36.9818 36.3275 37.0563 36.5501 37.0563C36.5501 37.2867 36.6378 37.5849 36.5298 37.7273C36.2196 38.1136 35.8284 38.4389 35.4641 38.7845C35.4304 38.8184 35.3697 38.8591 35.3495 38.8455C34.9448 38.6083 34.5063 38.4118 34.1623 38.1C33.9263 37.8831 33.6902 37.5036 33.7037 37.2122C33.7239 36.8733 34.1016 36.8055 34.3917 37.0292C34.6412 37.2257 34.8638 37.4629 35.1539 37.734V37.7476Z" fill="white"/>
</g>
<defs>
<clipPath id="clip0_203_207">
<rect width="35" height="29" fill="white" transform="translate(7 14)"/>
</clipPath>
</defs>
</svg>
